<?xml version="1.0" encoding="utf-8"?>
<COLLADA xmlns="http://www.collada.org/2005/11/COLLADASchema" version="1.4.1" xmlns:xsi="http://www.w3.org/2001/XMLSchema-instance">
  <asset>
    <contributor>
      <author>Blender User</author>
      <authoring_tool>Blender 4.2.10 LTS commit date:2025-05-19, commit time:14:56, hash:930497d46279</authoring_tool>
    </contributor>
    <created>2026-03-04T00:07:29</created>
    <modified>2026-03-04T00:07:29</modified>
    <unit name="meter" meter="1"/>
    <up_axis>Z_UP</up_axis>
  </asset>
  <library_effects>
    <effect id="Plastic_Bottles-effect">
      <profile_COMMON>
        <newparam sid="PlasticBottles_Plastic_Bottles_AlbedoTransparency_png-surface">
          <surface type="2D">
            <init_from>PlasticBottles_Plastic_Bottles_AlbedoTransparency_png</init_from>
          </surface>
        </newparam>
        <newparam sid="PlasticBottles_Plastic_Bottles_AlbedoTransparency_png-sampler">
          <sampler2D>
            <source>PlasticBottles_Plastic_Bottles_AlbedoTransparency_png-surface</source>
          </sampler2D>
        </newparam>
        <technique sid="common">
          <lambert>
            <emission>
              <color sid="emission">0 0 0 1</color>
            </emission>
            <diffuse>
              <texture texture="PlasticBottles_Plastic_Bottles_AlbedoTransparency_png-sampler" texcoord="UVMap"/>
            </diffuse>
            <index_of_refraction>
              <float sid="ior">1.45</float>
            </index_of_refraction>
          </lambert>
        </technique>
      </profile_COMMON>
    </effect>
  </library_effects>
  <library_images>
    <image id="PlasticBottles_Plastic_Bottles_AlbedoTransparency_png" name="PlasticBottles_Plastic_Bottles_AlbedoTransparency_png">
      <init_from>PlasticBottles_Plastic_Bottles_AlbedoTransparency.png</init_from>
    </image>
  </library_images>
  <library_materials>
    <material id="Plastic_Bottles-material" name="Plastic_Bottles">
      <instance_effect url="#Plastic_Bottles-effect"/>
    </material>
  </library_materials>
  <library_geometries>
    <geometry id="Cylinder_001-mesh" name="Cylinder.001">
      <mesh>
        <source id="Cylinder_001-mesh-positions">
          <float_array id="Cylinder_001-mesh-positions-array" count="243">0.03859889 0.01153469 0.1258857 0.05954593 -0.01768881 0.1103888 0.03469401 -0.05358892 0.1041122 0.01706552 -0.05335402 0.1107324 0.002638161 -0.01750922 0.1263716 -0.03001159 0.001331984 0.1418685 -0.01852148 0.03049051 0.1481451 0.01246869 0.03699725 0.1415249 0.0563308 -0.03716796 0.2037965 0.04885083 -0.05021011 0.1976208 0.03682482 -0.05358105 0.1951196 0.02729767 -0.0453062 0.1977578 0.02585023 -0.0302329 0.2039901 0.03333032 -0.01719069 0.2101656 0.04535615 -0.01381969 0.212667 0.0548833 -0.02209454 0.2100287 0.06540304 -0.03904438 0.2037807 0.05468642 -0.05381321 0.1965975 0.03601151 -0.05680143 0.193688 0.02031773 -0.04625856 0.1967567 0.01679837 -0.02836048 0.2040059 0.02751499 -0.01359164 0.211189 0.0461899 -0.01060336 0.2140985 0.06188368 -0.02114629 0.2110298 0.06513226 -0.04034519 0.2068601 0.05441558 -0.05511397 0.1996769 0.03574067 -0.05810225 0.1967675 0.02004688 -0.04755932 0.1998361 0.01652759 -0.02966135 0.2070854 0.02724415 -0.01489245 0.2142685 0.04591917 -0.01190429 0.2171779 0.06161284 -0.02244704 0.2141091 0.06315302 -0.03991013 0.2068692 0.0533092 -0.05347621 0.2002711 0.03615516 -0.05622106 0.1975986 0.02173954 -0.0465368 0.2004175 0.01850682 -0.03009641 0.2070761 0.02835065 -0.01653033 0.2136743 0.04550468 -0.01378548 0.2163468 0.05992025 -0.02346962 0.213528 0.06047308 -0.05226778 0.2361775 0.05067443 -0.06577134 0.2296097 0.03359937 -0.06850367 0.2269495 0.01925003 -0.05886393 0.2297554 0.01603215 -0.04249918 0.2363834 0.02583074 -0.02899551 0.2429512 0.04290592 -0.02626329 0.2456114 0.05725514 -0.03590291 0.2428056 0.02150654 -0.01587462 0.02153027 0.06817001 -0.01027631 0.04613572 0.05935162 0.02296656 0.02271264 0.02144217 0.03932166 0.01533269 -0.01726627 0.0240525 0.01533269 -0.03384053 -0.01411545 0.01533269 -0.01857143 -0.05282402 0.01533269 0.01423025 -0.06485128 0.04125976 0.04948014 -0.04665172 0.05381822 0.02063477 -0.05539661 0.1263399 -0.01236975 0.01157605 0.1719786 -0.01009887 -0.03642934 0.1662876 0.01203966 0.02672672 0.1556059 0.04699945 0.0115087 0.1407419 0.05008864 -0.04921239 0.1200477 -0.02410882 -0.003421306 0.1559325 0.06100934 -0.02149927 0.1260133 0.02126717 0.02901881 0 -0.01010477 0.01664364 0 -0.02353763 -0.01429033 0 -0.0111624 -0.04566246 0 0.05159389 -0.04710167 0.03547155 0.06674146 -0.01762056 0.02924507 0.05959439 0.009321808 0.01026141 0.02302491 -0.06185185 0.02529329 -0.01930326 0.0222271 0.08615839 0.04524964 -0.0377767 0.08993232 0.01108217 -0.05401843 0.07509356 0.03350025 0.02718561 0.1015204 -0.01670986 -0.002970397 0.0815916 0.006793439 0.03756052 0.09172368 0.04632604 -0.006773054 0.1007784 -0.008400797 -0.0424965 0.07700842</float_array>
          <technique_common>
            <accessor source="#Cylinder_001-mesh-positions-array" count="81" stride="3">
              <param name="X" type="float"/>
              <param name="Y" type="float"/>
              <param name="Z" type="float"/>
            </accessor>
          </technique_common>
        </source>
        <source id="Cylinder_001-mesh-normals">
          <float_array id="Cylinder_001-mesh-normals-array" count="483">-0.6505588 -0.7289466 -0.2130966 -0.7902975 -0.3117439 -0.5274899 -0.7902962 -0.3117445 -0.5274916 0.4673072 0.8027848 -0.370352 0.4389812 0.7136303 -0.5459188 0.3314671 0.9205996 -0.2064607 -0.1311834 -0.942746 -0.3066287 -0.2670817 -0.960434 0.07895565 0.9837898 -0.01201635 0.1789231 0.8932527 -0.4349703 0.1135804 0.8932524 -0.4349705 0.1135818 0.8890088 0.4526157 0.06930112 0.4791702 0.8745688 0.07433468 0.2470014 0.825681 0.5071897 -0.5971185 -0.5903937 0.543033 -0.805009 -0.5503346 0.2215681 -0.8091892 -0.5863999 -0.03671908 0.5746918 0.7871737 0.2238011 -0.7160431 0.02537345 0.6975948 -0.717743 -0.05796229 0.6938915 -0.4831183 -0.8648415 0.1365503 0.1017881 -0.9946904 -0.01517552 0.2084858 -0.9779136 0.01479303 -0.3689018 0.4747212 0.799094 -0.787827 0.001389622 0.615895 -0.9174847 -0.2656869 0.296028 0.07879865 0.388293 -0.9181609 0.07893383 0.3867763 -0.9187893 0.07871884 0.3882983 -0.9181655 0.6854976 -0.7276534 -0.02477121 0.8524379 -0.4256858 -0.3035481 0.9979087 0.05419903 -0.03522312 0.9769227 -0.2135502 -0.004292488 0.83758 0.4729524 0.2734518 0.976924 -0.2135446 -0.004290699 0.08002078 0.3898015 -0.9174157 0.08158743 0.3875811 -0.9182181 0.08231538 0.3874006 -0.9182294 0.0792514 0.3864094 -0.9189162 0.08157426 0.3875396 -0.9182368 0.07893443 0.386772 -0.918791 0.07956039 0.3896014 -0.9175408 0.0800178 0.3897952 -0.9174187 0.07925307 0.386418 -0.9189125 0.07879829 0.3882943 -0.9181604 0.07956349 0.3896048 -0.917539 0.07871657 0.3882997 -0.918165 0.08230006 0.3873469 -0.9182533 -0.08096373 -0.3878126 0.9181755 -0.0810002 -0.3877909 0.9181815 -0.08100098 -0.3877905 0.9181817 0.1986042 0.8964444 0.3961616 -0.5606852 0.7792971 0.2798717 0.1987343 0.8964148 0.3961632 -0.8375816 -0.472954 -0.2734441 -0.976925 0.2135392 0.004311621 -0.976924 0.2135438 0.004317402 0.56068 -0.7792984 -0.2798786 -0.1986129 -0.896456 -0.3961309 -0.1987252 -0.8964314 -0.3961302 0.8375394 0.4730115 0.2734739 -0.5607501 0.7792584 0.2798495 -0.837543 -0.4730103 -0.273465 0.5607476 -0.7792577 -0.2798564 -0.0810225 -0.3878302 0.918163 -0.08098608 -0.3878043 0.9181771 -0.08102238 -0.3878311 0.9181627 -0.08101624 -0.3878007 0.918176 -0.08097058 -0.3878319 0.9181668 -0.08096963 -0.3878316 0.9181671 -0.080985 -0.387803 0.9181777 -0.08101999 -0.3877993 0.9181761 -0.08098715 -0.3877998 0.9181789 -0.08098733 -0.3878 0.9181787 -0.08095848 -0.3878132 0.9181758 -0.08098542 -0.3878022 0.918178 -0.08098459 -0.3878028 0.9181779 -0.1990016 -0.8977421 -0.3930108 -0.8378203 -0.4742905 -0.2703806 -0.8378358 -0.4742679 -0.2703726 0.9766518 -0.2148249 -0.001272261 0.5604947 -0.7805399 -0.276773 0.5603886 -0.7806034 -0.2768085 -0.08099007 -0.3878067 0.9181757 -0.08099031 -0.3878101 0.9181743 -0.08098995 -0.3878085 0.918175 0.8373192 0.4716351 0.2765085 0.8372523 0.4717329 0.2765444 -0.5609694 0.777978 0.2829552 0.1983345 0.8951221 0.3992741 -0.5609962 0.7779624 0.282945 -0.977184 0.2122683 0.007320165 -0.9771842 0.2122677 0.00731939 -0.1988864 -0.8977677 -0.3930108 0.1984525 0.895096 0.3992742 0.6789394 0.7226744 0.1295499 0.9226029 0.3832124 0.04418414 0.2589891 0.9656597 0.02064132 -0.9511334 -0.1190369 0.2849132 -0.9509845 0.2879332 -0.1127963 -0.8924837 -0.3021731 0.3349094 0.9406025 0.1996357 0.2746136 0.4176203 -0.8991525 0.1308373 0.4370914 -0.8965029 0.07234418 0.5020871 -0.8440555 0.1883589 0.9744091 -0.2243458 0.01400315 0.8231361 0.4186536 -0.3836355 -0.3821545 0.9216657 -0.06701141 -0.583734 0.8073662 -0.08610719 -0.5904918 -0.7848646 0.1879022 -0.1394558 -0.9767323 0.1629295 0.6885909 -0.7175353 -0.104813 0.976734 0.1537787 -0.1494751 -0.8964343 0.389271 -0.2118344 -0.7792617 0.3383896 -0.5274881 -0.4633206 0.8537045 -0.2377449 -0.3117455 0.7902985 -0.5274875 -0.3117457 0.7902982 -0.527488 -0.9948028 -0.1008307 0.01416999 -0.9736889 -0.1336653 0.1845631 0.4026447 -0.8947106 -0.1933141 -0.1063132 -0.9937885 -0.0328958 -0.8895764 0.4304847 0.1527646 -0.8449742 -0.5222437 -0.1152395 -0.110796 0.8974121 0.4270547 0.303857 0.8994481 0.3141083 0.9334881 0.1660681 -0.3178384 -0.9569487 -0.2898961 0.01447939 0.7355477 0.6727324 0.08000499 0.7716154 0.5612303 -0.2993832 0.2963871 -0.2380959 -0.9249135 0.2982129 -0.3082206 -0.9033655 0.1002537 -0.4298145 -0.8973343 0.5017343 0.07274842 -0.8619573 0.430987 -0.008622825 -0.9023169 0.1366057 -0.4216704 -0.8964001 0.2609087 -0.1726505 -0.9497992 0.07008016 -0.4936242 -0.8668472 0.4732409 -0.0563243 -0.8791307 -0.8373652 -0.4634867 0.289827 0.9580807 -0.2864985 -8.51492e-5 -0.9073634 -0.3579218 -0.2204172 0.4789459 0.5963566 -0.6441815 -0.08360409 -0.8867689 -0.454589 0.8842692 -0.4053871 0.2317958 0.9914421 0.1181594 -0.05550676 -0.07191175 0.7832296 0.6175599 -0.6199952 -0.7668048 0.166182 -0.3137077 0.5391695 0.7815905 0.2714412 -0.9624214 -0.008047461 0.9766525 -0.2148219 -0.001272857 -0.08099013 -0.38781 0.9181744 -0.08098995 -0.3878124 0.9181733 -0.08098989 -0.3878051 0.9181764 -0.08099049 -0.3878069 0.9181756 -0.08098971 -0.3878038 0.918177 0.4370914 -0.8965029 0.07234549 0.9767338 0.1537823 -0.1494732 -0.7792627 0.3383892 -0.527487 -0.3490772 0.8849375 -0.3082708 0.8781156 0.4478408 -0.1683797</float_array>
          <technique_common>
            <accessor source="#Cylinder_001-mesh-normals-array" count="161" stride="3">
              <param name="X" type="float"/>
              <param name="Y" type="float"/>
              <param name="Z" type="float"/>
            </accessor>
          </technique_common>
        </source>
        <source id="Cylinder_001-mesh-map-0">
          <float_array id="Cylinder_001-mesh-map-0-array" count="948">0.7890552 0.7188695 0.8370726 0.7585748 0.7879078 0.7479584 0.9857962 0.803017 0.9222747 0.7972745 0.9360712 0.7760052 0.4854484 0.9752032 0.4339328 0.959399 0.4464583 0.9411154 0.3472564 0.9132853 0.3951156 0.9405294 0.3498306 0.9376279 0.4321279 0.686574 0.3654991 0.7656083 0.324569 0.7309646 0.9057784 0.4671766 0.9117345 0.5320097 0.8441759 0.5508351 0.324569 0.7309646 0.417144 0.6779626 0.4321279 0.686574 0.9521599 0.4550101 0.9117345 0.5320097 0.930457 0.4655514 0.8890524 0.4598149 0.8441759 0.5508351 0.8034396 0.5308596 0.9521599 0.4550101 0.9720219 0.5451488 0.9445816 0.5637029 0.9376172 0.8710145 0.9348745 0.8962211 0.9249024 0.8711293 0.4693467 0.7141309 0.4407467 0.8189711 0.4040693 0.798974 0.5618615 0.910946 0.5664725 0.8839451 0.566475 0.9109459 0.7515364 0.891484 0.7668685 0.8777607 0.7667164 0.8827337 0.751644 0.9345648 0.7666877 0.9486325 0.7425112 0.9381591 0.9376172 0.8710145 0.9349806 0.8461073 0.9438509 0.8495426 0.9439771 0.8926233 0.9590556 0.9066841 0.9348745 0.8962211 0.7452934 0.9129533 0.7426392 0.8880453 0.7515364 0.891484 0.7452934 0.9129533 0.7425112 0.9381591 0.73255 0.9130631 0.9438509 0.8495426 0.9592055 0.835812 0.959027 0.8407855 0.9271426 0.03939759 0.939139 0.06239783 0.9371678 0.06444114 0.2610431 0.9290112 0.2656506 0.9026894 0.2656567 0.9290114 0.261037 0.848713 0.2656479 0.8757137 0.2610343 0.8757138 0.5618591 0.9379215 0.5664669 0.9642432 0.5618533 0.9642432 0.5618591 0.8839451 0.5664669 0.8575977 0.5664725 0.8839451 0.2610371 0.9026894 0.2656479 0.8757137 0.2656506 0.9026894 0.2610431 0.8223653 0.2656504 0.8487131 0.261037 0.848713 0.5618615 0.910946 0.5664725 0.9379215 0.5618591 0.9379215 0.9371678 0.01432716 0.961371 0.006801545 0.939139 0.01636517 0.9271426 0.1181007 0.9391389 0.1411009 0.9371679 0.1431441 0.9271426 0.1181007 0.939139 0.09506821 0.9299302 0.118097 0.9371678 0.06444114 0.961371 0.07190161 0.961371 0.07478749 0.9271426 0.03939759 0.939139 0.01636517 0.9299302 0.03939378 0.9371679 0.1431441 0.9613708 0.1506046 0.9613708 0.1534905 0.9371679 0.09303021 0.9613708 0.08550465 0.939139 0.09506821 0.004045426 0.8223653 0.04785645 0.846681 0.003948271 0.8465669 0.05578446 0.8713685 0.09972053 0.8960329 0.05581241 0.8961471 0.8589845 0.8775554 0.8589845 0.8528679 0.917071 0.8542368 0.09972077 0.8466805 0.05578446 0.8713685 0.05581265 0.8465666 0.04785633 0.8960331 0.004045426 0.920325 0.003948211 0.8961471 0.003948271 0.8465669 0.0478239 0.8713685 0.003915607 0.8713683 0.05581241 0.8961471 0.0998063 0.9200995 0.05589866 0.9203251 0.0998063 0.8225904 0.05581265 0.8465666 0.05589866 0.8223653 0.0478239 0.8713685 0.003948211 0.8961471 0.003915607 0.8713683 0.3168902 0.8092799 0.2916966 0.927348 0.273488 0.8016403 0.8933466 0.6563791 0.8441256 0.7346916 0.8356737 0.6384879 0.369172 0.8288669 0.3472564 0.9132853 0.3168902 0.8092799 0.4464583 0.9411154 0.3951156 0.9405294 0.4018485 0.9165799 0.4098718 0.8618583 0.4018485 0.9165799 0.369172 0.8288669 0.9741759 0.680061 0.9360712 0.7760052 0.9311957 0.6640307 0.8356737 0.6384879 0.7890552 0.7188695 0.8071483 0.6212266 0.4569063 0.9000145 0.4464583 0.9411154 0.4098718 0.8618583 0.3472564 0.9132853 0.3041697 0.9509535 0.2916966 0.927348 0.8913795 0.752454 0.8370726 0.7585748 0.8441256 0.7346916 0.8913795 0.752454 0.9222747 0.7972745 0.881714 0.7736875 0.9311957 0.6640307 0.8913795 0.752454 0.8933466 0.6563791 0.8072683 0.5643255 0.8441759 0.5508351 0.834437 0.5729259 0.9857962 0.5882045 0.9445816 0.5637029 0.9720219 0.5451488 0.8937115 0.5845545 0.8441759 0.5508351 0.9117345 0.5320097 0.2828646 0.7178962 0.324569 0.7309646 0.3114033 0.7490618 0.3937991 0.8177155 0.4407467 0.8189711 0.4446597 0.8519347 0.8937115 0.5845545 0.9445816 0.5637029 0.9442514 0.5837122 0.35073 0.7835449 0.324569 0.7309646 0.3654991 0.7656083 0.35073 0.7835449 0.4040693 0.798974 0.3937991 0.8177155 0.8456022 0.2444999 0.8702425 0.1800833 0.9051317 0.2108112 0.8456022 0.2444999 0.788016 0.2091823 0.8237551 0.1794489 0.8456022 0.2444999 0.8237551 0.1794489 0.8702425 0.1800833 0.8456022 0.2444999 0.8695351 0.302864 0.8230528 0.302864 0.8456022 0.2444999 0.9041503 0.2718386 0.8695351 0.302864 0.8456022 0.2444999 0.9051317 0.2108112 0.9041503 0.2718386 0.8456022 0.2444999 0.8230528 0.302864 0.788411 0.2718709 0.8456022 0.2444999 0.788411 0.2718709 0.788016 0.2091823 0.8937115 0.5845545 0.9311957 0.6640307 0.8933466 0.6563791 0.4446597 0.8519347 0.4098718 0.8618583 0.3937991 0.8177155 0.834437 0.5729259 0.8071483 0.6212266 0.8072683 0.5643255 0.9857962 0.5882045 0.9311957 0.6640307 0.9442514 0.5837122 0.3937991 0.8177155 0.369172 0.8288669 0.35073 0.7835449 0.35073 0.7835449 0.3168902 0.8092799 0.3114033 0.7490618 0.8937115 0.5845545 0.8356737 0.6384879 0.834437 0.5729259 0.3114033 0.7490618 0.273488 0.8016403 0.2828646 0.7178962 0.4040693 0.798974 0.4510617 0.7006651 0.4693467 0.7141309 0.7890552 0.7188695 0.8441256 0.7346916 0.8370726 0.7585748 0.9857962 0.803017 0.9774331 0.8279808 0.9222747 0.7972745 0.4854484 0.9752032 0.4763638 0.9960844 0.4339328 0.959399 0.3472564 0.9132853 0.4018485 0.9165799 0.3951156 0.9405294 0.4321279 0.686574 0.4510617 0.7006651 0.3654991 0.7656083 0.9057784 0.4671766 0.930457 0.4655514 0.9117345 0.5320097 0.324569 0.7309646 0.3131127 0.6868799 0.417144 0.6779626 0.9521599 0.4550101 0.9445816 0.5637029 0.9117345 0.5320097 0.8890524 0.4598149 0.9057784 0.4671766 0.8441759 0.5508351 0.9521599 0.4550101 0.9628536 0.4408102 0.9720219 0.5451488 0.9376172 0.8710145 0.9439771 0.8926233 0.9348745 0.8962211 0.4693467 0.7141309 0.4854484 0.7218123 0.4407467 0.8189711 0.5618615 0.910946 0.5618591 0.8839451 0.5664725 0.8839451 0.7515364 0.891484 0.7426392 0.8880453 0.7668685 0.8777607 0.751644 0.9345648 0.7668685 0.9436591 0.7666877 0.9486325 0.9376172 0.8710145 0.9249024 0.8711293 0.9349806 0.8461073 0.9439771 0.8926233 0.9592055 0.9017109 0.9590556 0.9066841 0.7452934 0.9129533 0.73255 0.9130631 0.7426392 0.8880453 0.7452934 0.9129533 0.751644 0.9345648 0.7425112 0.9381591 0.9438509 0.8495426 0.9349806 0.8461073 0.9592055 0.835812 0.9271426 0.03939759 0.9299302 0.03939378 0.939139 0.06239783 0.2610431 0.9290112 0.2610371 0.9026894 0.2656506 0.9026894 0.261037 0.848713 0.2656504 0.8487131 0.2656479 0.8757137 0.5618591 0.9379215 0.5664725 0.9379215 0.5664669 0.9642432 0.5618591 0.8839451 0.5618533 0.8575975 0.5664669 0.8575977 0.2610371 0.9026894 0.2610343 0.8757138 0.2656479 0.8757137 0.2610431 0.8223653 0.2656567 0.8223654 0.2656504 0.8487131 0.5618615 0.910946 0.566475 0.9109459 0.5664725 0.9379215 0.9371678 0.01432716 0.961371 0.003915667 0.961371 0.006801545 0.9271426 0.1181007 0.9299302 0.118097 0.9391389 0.1411009 0.9271426 0.1181007 0.9371679 0.09303021 0.939139 0.09506821 0.9371678 0.06444114 0.939139 0.06239783 0.961371 0.07190161 0.9271426 0.03939759 0.9371678 0.01432716 0.939139 0.01636517 0.9371679 0.1431441 0.9391389 0.1411009 0.9613708 0.1506046 0.9371679 0.09303021 0.9613708 0.08261883 0.9613708 0.08550465 0.004045426 0.8223653 0.04795312 0.8225907 0.04785645 0.846681 0.05578446 0.8713685 0.09969288 0.8713682 0.09972053 0.8960329 0.8759976 0.835812 0.9000577 0.8363792 0.8589845 0.8528679 0.9000577 0.8363792 0.917071 0.8542368 0.8589845 0.8528679 0.917071 0.8542368 0.917071 0.8789245 0.8589845 0.8775554 0.917071 0.8789245 0.900058 0.8959802 0.8759977 0.8954132 0.8589845 0.8775554 0.917071 0.8789245 0.8759977 0.8954132 0.09972077 0.8466805 0.09969288 0.8713682 0.05578446 0.8713685 0.04785633 0.8960331 0.04795312 0.9200999 0.004045426 0.920325 0.003948271 0.8465669 0.04785645 0.846681 0.0478239 0.8713685 0.05581241 0.8961471 0.09972053 0.8960329 0.0998063 0.9200995 0.0998063 0.8225904 0.09972077 0.8466805 0.05581265 0.8465666 0.0478239 0.8713685 0.04785633 0.8960331 0.003948211 0.8961471 0.3168902 0.8092799 0.3472564 0.9132853 0.2916966 0.927348 0.8933466 0.6563791 0.8913795 0.752454 0.8441256 0.7346916 0.369172 0.8288669 0.4018485 0.9165799 0.3472564 0.9132853 0.4464583 0.9411154 0.4339328 0.959399 0.3951156 0.9405294 0.4098718 0.8618583 0.4464583 0.9411154 0.4018485 0.9165799 0.9741759 0.680061 0.9857962 0.803017 0.9360712 0.7760052 0.8356737 0.6384879 0.8441256 0.7346916 0.7890552 0.7188695 0.4569063 0.9000145 0.4854484 0.9752032 0.4464583 0.9411154 0.3472564 0.9132853 0.3498306 0.9376279 0.3041697 0.9509535 0.8913795 0.752454 0.881714 0.7736875 0.8370726 0.7585748 0.8913795 0.752454 0.9360712 0.7760052 0.9222747 0.7972745 0.9311957 0.6640307 0.9360712 0.7760052 0.8913795 0.752454 0.8072683 0.5643255 0.8034396 0.5308596 0.8441759 0.5508351 0.9857962 0.5882045 0.9442514 0.5837122 0.9445816 0.5637029 0.8937115 0.5845545 0.834437 0.5729259 0.8441759 0.5508351 0.2828646 0.7178962 0.3131127 0.6868799 0.324569 0.7309646 0.3937991 0.8177155 0.4040693 0.798974 0.4407467 0.8189711 0.8937115 0.5845545 0.9117345 0.5320097 0.9445816 0.5637029 0.35073 0.7835449 0.3114033 0.7490618 0.324569 0.7309646 0.35073 0.7835449 0.3654991 0.7656083 0.4040693 0.798974 0.8937115 0.5845545 0.9442514 0.5837122 0.9311957 0.6640307 0.4446597 0.8519347 0.4569063 0.9000145 0.4098718 0.8618583 0.834437 0.5729259 0.8356737 0.6384879 0.8071483 0.6212266 0.9857962 0.5882045 0.9741759 0.680061 0.9311957 0.6640307 0.3937991 0.8177155 0.4098718 0.8618583 0.369172 0.8288669 0.35073 0.7835449 0.369172 0.8288669 0.3168902 0.8092799 0.8937115 0.5845545 0.8933466 0.6563791 0.8356737 0.6384879 0.3114033 0.7490618 0.3168902 0.8092799 0.273488 0.8016403 0.4040693 0.798974 0.3654991 0.7656083 0.4510617 0.7006651</float_array>
          <technique_common>
            <accessor source="#Cylinder_001-mesh-map-0-array" count="474" stride="2">
              <param name="S" type="float"/>
              <param name="T" type="float"/>
            </accessor>
          </technique_common>
        </source>
        <vertices id="Cylinder_001-mesh-vertices">
          <input semantic="POSITION" source="#Cylinder_001-mesh-positions"/>
        </vertices>
        <triangles material="Plastic_Bottles-material" count="158">
          <input semantic="VERTEX" source="#Cylinder_001-mesh-vertices" offset="0"/>
          <input semantic="NORMAL" source="#Cylinder_001-mesh-normals" offset="1"/>
          <input semantic="TEXCOORD" source="#Cylinder_001-mesh-map-0" offset="2" set="0"/>
          <p>54 0 0 67 1 1 68 2 2 50 3 3 65 4 4 51 5 5 54 0 6 72 6 7 55 7 8 49 8 9 69 9 10 70 10 11 15 11 12 61 12 13 60 13 14 11 14 15 59 15 16 57 16 17 60 13 18 14 17 19 15 11 20 13 18 21 59 15 22 12 19 23 10 20 24 57 21 25 62 22 26 13 23 27 58 24 28 63 25 29 12 26 30 19 27 31 20 28 32 9 29 33 62 30 34 64 31 35 16 32 36 31 33 37 24 34 38 9 35 39 18 36 40 10 37 41 15 38 42 22 39 43 23 40 44 12 26 45 21 41 46 13 42 47 11 43 48 18 36 49 19 27 50 8 44 51 17 45 52 9 35 53 8 44 54 23 40 55 16 46 56 13 42 57 22 39 58 14 47 59 28 48 60 37 49 61 29 50 62 22 51 63 29 52 64 30 53 65 19 54 66 28 55 67 20 56 68 17 57 69 26 58 70 18 59 71 23 60 72 30 53 73 31 33 74 21 61 75 28 55 76 29 52 77 18 59 78 27 62 79 19 54 80 16 32 81 25 63 82 17 57 83 27 64 84 34 65 85 35 66 86 24 67 87 33 68 88 25 69 89 24 67 90 39 70 91 32 71 92 29 50 93 38 72 94 30 73 95 28 48 96 35 66 97 36 74 98 25 69 99 34 65 100 26 75 101 31 76 102 38 72 103 39 70 104 34 77 105 43 78 106 35 79 107 32 80 108 41 81 109 33 82 110 44 83 111 43 84 112 40 85 113 47 86 114 32 80 115 39 87 116 45 88 117 38 89 118 37 90 119 35 79 120 44 91 121 36 92 122 33 82 123 42 93 124 34 77 125 46 94 126 39 87 127 38 89 128 44 91 129 37 90 130 36 92 131 76 95 132 50 96 133 78 97 134 77 98 135 53 99 136 80 100 137 79 101 138 49 8 139 76 95 140 55 102 141 69 103 142 56 104 143 74 105 144 56 104 145 79 106 146 78 107 147 51 5 148 73 108 149 80 109 150 54 0 151 75 110 152 75 110 153 55 7 154 74 111 155 49 8 156 71 112 157 50 96 158 52 113 159 67 114 160 53 99 161 52 115 162 65 116 163 66 117 164 73 118 165 52 115 166 77 119 167 2 120 168 57 21 169 3 121 170 6 122 171 63 25 172 58 24 173 4 123 174 57 16 175 59 15 176 6 124 177 60 13 178 7 125 179 1 126 180 62 30 181 2 120 182 4 123 183 63 25 184 5 127 185 0 128 186 60 13 187 61 12 188 0 129 189 64 31 190 1 126 191 48 130 192 66 131 193 65 132 194 48 130 195 68 133 196 67 134 197 48 130 198 67 134 199 66 131 200 48 130 201 70 135 202 69 136 203 48 130 204 71 137 205 70 135 206 48 130 207 65 132 208 71 137 209 48 130 210 69 136 211 72 138 212 48 130 213 72 138 214 68 133 215 4 123 216 73 118 217 77 119 218 2 120 219 74 111 220 1 126 221 3 121 222 75 110 223 2 120 224 6 122 225 73 108 226 5 127 227 1 126 228 79 106 229 0 129 230 0 128 231 76 95 232 7 125 233 4 123 234 80 100 235 3 139 236 7 125 237 78 97 238 6 124 239 64 31 240 8 140 241 9 29 242 54 0 243 53 141 244 67 1 245 50 3 246 71 142 247 65 4 248 54 0 249 68 143 250 72 6 251 49 8 252 56 144 253 69 9 254 15 11 255 8 145 256 61 12 257 11 14 258 12 19 259 59 15 260 60 13 261 58 146 262 14 17 263 13 18 264 63 25 265 59 15 266 10 20 267 11 147 268 57 21 269 13 23 270 14 148 271 58 24 272 12 26 273 11 43 274 19 27 275 9 29 276 10 149 277 62 30 278 16 32 279 23 60 280 31 33 281 9 35 282 17 45 283 18 36 284 15 38 285 14 47 286 22 39 287 12 26 288 20 28 289 21 41 290 11 43 291 10 37 292 18 36 293 8 44 294 16 46 295 17 45 296 8 44 297 15 38 298 23 40 299 13 42 300 21 41 301 22 39 302 28 48 303 36 74 304 37 49 305 22 51 306 21 61 307 29 52 308 19 54 309 27 62 310 28 55 311 17 57 312 25 63 313 26 58 314 23 60 315 22 51 316 30 53 317 21 61 318 20 56 319 28 55 320 18 59 321 26 58 322 27 62 323 16 32 324 24 34 325 25 63 326 27 64 327 26 75 328 34 65 329 24 67 330 32 71 331 33 68 332 24 67 333 31 76 334 39 70 335 29 50 336 37 49 337 38 72 338 28 48 339 27 64 340 35 66 341 25 69 342 33 68 343 34 65 344 31 76 345 30 73 346 38 72 347 34 77 348 42 93 349 43 78 350 32 80 351 40 150 352 41 81 353 42 151 354 41 152 355 43 84 356 41 152 357 40 85 358 43 84 359 40 85 360 47 153 361 44 83 362 47 153 363 46 154 364 45 155 365 44 83 366 47 153 367 45 155 368 47 86 369 40 150 370 32 80 371 45 88 372 46 94 373 38 89 374 35 79 375 43 78 376 44 91 377 33 82 378 41 81 379 42 93 380 46 94 381 47 86 382 39 87 383 44 91 384 45 88 385 37 90 386 76 95 387 49 8 388 50 96 389 77 98 390 52 113 391 53 99 392 79 101 393 56 144 394 49 8 395 55 102 396 72 156 397 69 103 398 74 105 399 55 102 400 56 104 401 78 107 402 50 3 403 51 5 404 80 109 405 53 141 406 54 0 407 75 110 408 54 0 409 55 7 410 49 8 411 70 157 412 71 112 413 52 113 414 66 158 415 67 114 416 52 115 417 51 159 418 65 116 419 73 118 420 51 159 421 52 115 422 2 120 423 62 22 424 57 21 425 6 122 426 5 127 427 63 25 428 4 123 429 3 139 430 57 16 431 6 124 432 58 146 433 60 13 434 1 126 435 64 31 436 62 30 437 4 123 438 59 15 439 63 25 440 0 128 441 7 125 442 60 13 443 0 129 444 61 160 445 64 31 446 4 123 447 5 127 448 73 118 449 2 120 450 75 110 451 74 111 452 3 121 453 80 109 454 75 110 455 6 122 456 78 107 457 73 108 458 1 126 459 74 105 460 79 106 461 0 128 462 79 101 463 76 95 464 4 123 465 77 98 466 80 100 467 7 125 468 76 95 469 78 97 470 64 31 471 61 160 472 8 140 473</p>
        </triangles>
      </mesh>
    </geometry>
  </library_geometries>
  <library_visual_scenes>
    <visual_scene id="Scene" name="Scene">
      <node id="Plastic_Bottle_02_GEO" name="Plastic_Bottle_02_GEO" type="NODE">
        <matrix sid="transform">1 0 0 0 0 1 0 0 0 0 1 0 0 0 0 1</matrix>
        <instance_geometry url="#Cylinder_001-mesh" name="Plastic_Bottle_02_GEO">
          <bind_material>
            <technique_common>
              <instance_material symbol="Plastic_Bottles-material" target="#Plastic_Bottles-material">
                <bind_vertex_input semantic="UVMap" input_semantic="TEXCOORD" input_set="0"/>
              </instance_material>
            </technique_common>
          </bind_material>
        </instance_geometry>
      </node>
    </visual_scene>
  </library_visual_scenes>
  <scene>
    <instance_visual_scene url="#Scene"/>
  </scene>
</COLLADA>