<?xml version="1.0" encoding="utf-8"?>
<COLLADA xmlns="http://www.collada.org/2005/11/COLLADASchema" version="1.4.1" xmlns:xsi="http://www.w3.org/2001/XMLSchema-instance">
  <asset>
    <contributor>
      <author>Blender User</author>
      <authoring_tool>Blender 4.2.10 LTS commit date:2025-05-19, commit time:14:56, hash:930497d46279</authoring_tool>
    </contributor>
    <created>2026-03-04T00:08:40</created>
    <modified>2026-03-04T00:08:40</modified>
    <unit name="meter" meter="1"/>
    <up_axis>Z_UP</up_axis>
  </asset>
  <library_effects>
    <effect id="Plastic_Bottles-effect">
      <profile_COMMON>
        <newparam sid="PlasticBottles_Plastic_Bottles_AlbedoTransparency_png-surface">
          <surface type="2D">
            <init_from>PlasticBottles_Plastic_Bottles_AlbedoTransparency_png</init_from>
          </surface>
        </newparam>
        <newparam sid="PlasticBottles_Plastic_Bottles_AlbedoTransparency_png-sampler">
          <sampler2D>
            <source>PlasticBottles_Plastic_Bottles_AlbedoTransparency_png-surface</source>
          </sampler2D>
        </newparam>
        <technique sid="common">
          <lambert>
            <emission>
              <color sid="emission">0 0 0 1</color>
            </emission>
            <diffuse>
              <texture texture="PlasticBottles_Plastic_Bottles_AlbedoTransparency_png-sampler" texcoord="UVMap"/>
            </diffuse>
            <index_of_refraction>
              <float sid="ior">1.45</float>
            </index_of_refraction>
          </lambert>
        </technique>
      </profile_COMMON>
    </effect>
  </library_effects>
  <library_images>
    <image id="PlasticBottles_Plastic_Bottles_AlbedoTransparency_png" name="PlasticBottles_Plastic_Bottles_AlbedoTransparency_png">
      <init_from>PlasticBottles_Plastic_Bottles_AlbedoTransparency.png</init_from>
    </image>
  </library_images>
  <library_materials>
    <material id="Plastic_Bottles-material" name="Plastic_Bottles">
      <instance_effect url="#Plastic_Bottles-effect"/>
    </material>
  </library_materials>
  <library_geometries>
    <geometry id="Cylinder-mesh" name="Cylinder">
      <mesh>
        <source id="Cylinder-mesh-positions">
          <float_array id="Cylinder-mesh-positions-array" count="243">0 0 0.02649343 0.01750326 0.04506945 0.2062777 0.0442456 0.0194922 0.2062777 0.04506945 -0.0175032 0.2062777 0.01949226 -0.04424554 0.2062777 -0.0175032 -0.04506945 0.2062777 -0.0442456 -0.0194922 0.2062777 -0.04506933 0.0175032 0.2062777 -0.0194922 0.0442456 0.2062777 0.007691442 0.01980495 0.2647151 0.01944297 0.008565485 0.2647151 0.01980501 -0.007691442 0.2647151 0.008565545 -0.01944291 0.2647151 -0.007691442 -0.01980495 0.2647151 -0.01944291 -0.008565485 0.2647151 -0.01980489 0.007691442 0.2647151 -0.008565545 0.01944297 0.2647151 0.007691442 0.01980495 0.2794238 0.01944297 0.008565485 0.2794238 0.01980501 -0.007691442 0.2794238 0.008565545 -0.01944291 0.2794238 -0.007691442 -0.01980495 0.2794238 -0.01944291 -0.008565485 0.2794238 -0.01980489 0.007691442 0.2794238 -0.008565545 0.01944297 0.2794238 0.008946418 0.02303636 0.2794238 0.02261525 0.009963035 0.2794238 0.02303636 -0.008946418 0.2794238 0.009963095 -0.02261525 0.2794238 -0.008946418 -0.02303636 0.2794238 -0.02261519 -0.009963035 0.2794238 -0.0230363 0.008946418 0.2794238 -0.009963035 0.02261525 0.2794238 0.008946418 0.02303636 0.2826412 0.02261525 0.009963035 0.2826412 0.02303636 -0.008946418 0.2826412 0.009963095 -0.02261525 0.2826412 -0.008946418 -0.02303636 0.2826412 -0.02261519 -0.009963035 0.2826412 -0.0230363 0.008946418 0.2826412 -0.009963035 0.02261525 0.2826412 0.008217811 0.02116024 0.2826412 0.02077347 0.009151637 0.2826412 0.02116024 -0.008217811 0.2826412 0.009151697 -0.02077341 0.2826412 -0.008217751 -0.02116024 0.2826412 -0.02077347 -0.009151637 0.2826412 -0.02116018 0.008217811 0.2826412 -0.009151577 0.02077341 0.2826412 0.008180022 0.02106291 0.3132618 0.02067786 0.009109556 0.3132618 0.02106297 -0.008180022 0.3132618 0.009109556 -0.02067786 0.3132618 -0.008179962 -0.02106291 0.3132618 -0.0206778 -0.009109556 0.3132618 -0.02106291 0.008180022 0.3132618 -0.009109497 0.02067786 0.3132618 0.01750326 0.04506945 0.03115308 0.0442456 0.0194922 0.03115308 0.04506945 -0.0175032 0.03115308 0.01949226 -0.04424554 0.03115308 -0.0175032 -0.04506945 0.03115308 -0.0442456 -0.0194922 0.03115308 -0.04506933 0.0175032 0.03115308 -0.0194922 0.0442456 0.03115308 0.007112264 0.01831346 0.01386404 0.01797878 0.007920444 0 0.01831352 -0.007112264 0.01386404 0.007920563 -0.01797872 0 -0.007112264 -0.01831352 0.01386404 -0.01797872 -0.007920444 0 -0.01831346 0.007112264 0.01386404 -0.007920444 0.01797872 0 -0.0173496 0.03938227 0 -0.04011559 0.01557934 0.01386404 -0.03938221 -0.01734977 0 -0.01557934 -0.04011565 0.01386404 0.01734966 -0.03938233 0 0.04011565 -0.01557934 0.01386404 0.03938227 0.01734977 0 0.0155794 0.04011565 0.01386404</float_array>
          <technique_common>
            <accessor source="#Cylinder-mesh-positions-array" count="81" stride="3">
              <param name="X" type="float"/>
              <param name="Y" type="float"/>
              <param name="Z" type="float"/>
            </accessor>
          </technique_common>
        </source>
        <source id="Cylinder-mesh-normals">
          <float_array id="Cylinder-mesh-normals-array" count="387">0.354311 0.9123499 0.2051374 0.9103546 0.4010503 -0.1020445 0.3582754 0.9225218 -0.1435 0.8956667 0.3945861 0.2051416 0.922522 -0.3582752 -0.1434997 0.9123483 -0.3543176 0.205133 0.401051 -0.9103544 -0.1020444 0.3945935 -0.8956644 0.2051373 -0.3582752 -0.9225219 -0.1435 -0.3543107 -0.9123501 0.2051374 -0.9103553 -0.4010491 -0.1020448 -0.8956672 -0.3945849 0.2051418 -0.922522 0.3582757 -0.143499 0.3925939 -0.8911648 0.2273657 -0.9123482 0.3543181 0.2051329 -0.4010519 0.9103539 -0.1020449 -0.3945944 0.8956639 0.2051373 0.1957644 0.5040718 -0.8411825 0.7350769 0.3238346 -0.5956452 1.95249e-7 -4.0026e-7 -1 -0.9077549 0.3525424 0.2273656 -0.4031698 0.9151252 0 -0.3925948 0.8911645 0.227366 -0.8911657 -0.3925924 0.2273657 -0.3525436 -0.9077543 0.2273659 0.8911647 0.3925947 0.2273657 0.9077547 -0.3525422 0.227366 0.3525428 0.9077546 0.227366 -2.79847e-6 0 -1 0 0 -1 -3.36322e-6 0 -1 -0.9151268 -0.4031662 0 0.4031683 -0.9151259 0 0.9151258 0.4031685 0 0.3620089 0.9321748 0 -0.932175 0.3620081 0 -0.3620092 -0.9321745 0 0.9321747 -0.3620089 0 -0.4031605 0.9151293 0 0.3620222 0.9321696 0 0.3620175 0.9321713 0 2.5628e-7 0 -1 3.78737e-6 0 -1 4.47078e-6 0 -1 -2.87606e-6 0 -1 3.19982e-6 0 -1 -3.8437e-6 0 -1 1.77959e-6 0 -1 2.58927e-6 0 -1 0 0 -1 -9.46843e-7 0 -1 0 0 -1 -1.1177e-6 0 -1 4.4708e-6 0 -1 1.10285e-5 0 1 -1.53384e-6 0 1 1.05913e-5 0 1 -0.9151301 -0.4031587 0 -0.9321697 0.3620218 0 -0.9321715 0.362017 0 0.403159 -0.91513 0 -0.3620205 -0.9321702 0 -0.3620162 -0.9321719 0 0.9151296 0.40316 0 0.9321706 -0.3620194 0 0.9321722 -0.3620152 0 -0.4031558 0.9151315 0 -0.915132 -0.4031544 0 0.4031547 -0.9151319 0 0.9151316 0.4031554 0 -7.01288e-6 0 1 3.00928e-7 0 1 6.17117e-7 0 1 -5.10872e-6 0 1 -1.56899e-6 0 1 -4.70715e-6 0 1 -1.65507e-6 0 1 -7.20705e-6 0 1 5.51973e-6 0 1 3.94e-6 0 1 -1.65507e-6 0 1 -7.20716e-6 0 1 -6.18812e-6 0 1 0.3620168 0.9321655 0.003410637 0.9151247 0.4031569 0.003409981 0.9151254 0.4031549 0.003412187 0.9321651 -0.3620177 0.003410816 0.4031539 -0.9151259 0.003409743 0.4031559 -0.9151251 0.003411233 0 0 1 -7.33932e-7 0 1 -7.33902e-7 0 1 -0.4031538 0.915126 0.003409624 -0.4031547 0.9151256 0.003410458 -0.9151248 -0.4031566 0.003409981 -0.9321644 0.3620193 0.003410458 -0.9151256 -0.4031548 0.003412246 -0.3620163 -0.9321656 0.003410816 0.2191187 -0.5854056 -0.7805685 -0.4959738 -0.004461407 -0.8683261 -0.1814944 0.0460025 -0.9823154 -0.5567905 -0.2840716 -0.7805688 0.3629605 -0.3380386 -0.8683257 -0.2786073 -0.7173921 -0.6385347 0.5451031 0.2401452 -0.8032392 -0.3629606 0.338039 -0.8683257 0.2786079 0.717392 -0.6385346 0.7463591 -0.2654128 -0.6103313 -0.2191183 0.5854052 -0.780569 0.4959748 0.004461348 -0.8683255 0.1814954 -0.04600208 -0.9823153 -0.7573953 0.2941437 -0.582951 0.1649706 -0.08855259 -0.9823153 -0.2557292 -0.6584823 -0.7078161 0.2557294 0.6584824 -0.707816 0.004463553 -0.4959737 -0.8683262 1.2477e-6 -2.90373e-6 -1 0.5040733 -0.1957627 -0.8411821 0.3238355 -0.7350767 -0.595645 -0.1957636 -0.5040723 -0.8411824 -0.7350763 -0.3238362 -0.5956451 -0.5040723 0.1957619 -0.8411827 -0.3238343 0.7350768 -0.5956455 0.3620183 0.9321648 0.0034101 0.9321654 -0.3620169 0.003407835 -4.40384e-6 0 1 -0.9321652 0.3620174 0.003408014 -0.3620176 -0.932165 0.003410041 0.2557293 0.6584823 -0.7078161</float_array>
          <technique_common>
            <accessor source="#Cylinder-mesh-normals-array" count="129" stride="3">
              <param name="X" type="float"/>
              <param name="Y" type="float"/>
              <param name="Z" type="float"/>
            </accessor>
          </technique_common>
        </source>
        <source id="Cylinder-mesh-map-0">
          <float_array id="Cylinder-mesh-map-0-array" count="948">0.5808957 0.5565067 0.6323047 0.7920448 0.5805943 0.8056689 0.632714 0.566269 0.680228 0.7890458 0.6323047 0.7920448 0.6807364 0.5688493 0.7273988 0.790837 0.680228 0.7890458 0.7282116 0.5655938 0.7800765 0.8039665 0.7273988 0.790837 0.7801848 0.3169758 0.7292931 0.08208984 0.7801848 0.06867283 0.7284626 0.3072993 0.6821222 0.08454251 0.7292931 0.08208984 0.6807364 0.5688493 0.7081486 0.4684079 0.7282116 0.5655938 0.680483 0.3047396 0.6344691 0.08241164 0.6821222 0.08454251 0.6329363 0.3080105 0.5805943 0.06809955 0.6344691 0.08241164 0.5531598 0.8879687 0.554022 0.9183397 0.5236508 0.8879687 0.6803553 0.402173 0.6563333 0.428189 0.6531212 0.4053097 0.680483 0.3047396 0.7084783 0.403131 0.6803553 0.402173 0.7282116 0.5655938 0.7332963 0.4617999 0.7800765 0.5553781 0.680483 0.3047396 0.6531212 0.4053097 0.6329363 0.3080105 0.6807364 0.5688493 0.6528311 0.4704924 0.6809396 0.4715 0.7801848 0.3169758 0.7084783 0.403131 0.7284626 0.3072993 0.6329363 0.3080105 0.6279466 0.4119672 0.5808542 0.3183041 0.5808957 0.5565067 0.6528311 0.4704924 0.632714 0.566269 0.2417858 0.9186457 0.2177482 0.923834 0.2417858 0.9138774 0.735199 0.4084074 0.7056614 0.4275695 0.7084783 0.403131 0.6809396 0.4715 0.7049792 0.4455525 0.7081486 0.4684079 0.6261216 0.4651537 0.6557 0.4460691 0.6528311 0.4704924 0.6531212 0.4053097 0.6327255 0.4329789 0.6279466 0.4119672 0.7084783 0.403131 0.6806551 0.4261489 0.6803553 0.402173 0.7081486 0.4684079 0.7285597 0.4408103 0.7332963 0.4617999 0.6528311 0.4704924 0.6806845 0.4475439 0.6809396 0.4715 0.7756507 0.9558147 0.7800765 0.9818326 0.7756507 0.9818326 0.2211201 0.9685373 0.2077916 0.9478716 0.2125601 0.9478716 0.9411472 0.3240239 0.9278187 0.3446896 0.9377754 0.320652 0.961813 0.3739155 0.9377754 0.3687272 0.9411472 0.3653554 0.2211201 0.9272059 0.2077916 0.9478716 0.2177482 0.923834 0.2211201 0.9685373 0.2417858 0.9818658 0.2177483 0.9719092 0.961813 0.3154637 0.9377754 0.320652 0.961813 0.3106954 0.9411472 0.3653554 0.9278187 0.3446896 0.9325872 0.3446896 0.7978646 0.9168454 0.821902 0.9096572 0.7998221 0.9188031 0.7756507 0.9037787 0.7800765 0.9297966 0.7756507 0.9297966 0.9770184 0.2575035 0.9814441 0.2835215 0.9770184 0.2835215 0.9770184 0.2054671 0.9814441 0.2314853 0.9770184 0.2314853 0.7756507 0.9297966 0.7800765 0.9558147 0.7756507 0.9558147 0.7756509 0.8777607 0.7800765 0.9037787 0.7756507 0.9037787 0.9770184 0.2314853 0.9814441 0.2575035 0.9770184 0.2575035 0.9770184 0.1794489 0.9814442 0.2054671 0.9770184 0.2054671 0.8589845 0.9378057 0.8708987 0.9598856 0.8689411 0.9618434 0.8689412 0.9137681 0.8929787 0.9065799 0.8708988 0.9157258 0.821902 0.9748773 0.7998221 0.9629628 0.821902 0.9721087 0.7879078 0.940883 0.7998221 0.9188031 0.7906764 0.940883 0.8689411 0.9618434 0.8929787 0.9690315 0.8929787 0.9718001 0.8589845 0.9378057 0.8708988 0.9157258 0.8617531 0.9378057 0.7978646 0.9649205 0.7906764 0.940883 0.7998221 0.9629628 0.1578394 0.8223653 0.1998671 0.8463741 0.1577458 0.8462643 0.1577147 0.8701633 0.1998671 0.8939527 0.1577458 0.8940625 0.6380266 0.8945822 0.6212051 0.9351931 0.5805943 0.9183716 0.1497902 0.8939527 0.1077624 0.9179615 0.1076689 0.8940625 0.1497901 0.8463742 0.1076377 0.8701634 0.1076689 0.8462643 0.1998671 0.8939527 0.1578394 0.9179615 0.1577458 0.8940625 0.1998671 0.8463741 0.1577147 0.8701633 0.1577458 0.8462643 0.1076377 0.8701634 0.1497902 0.8939527 0.1076689 0.8940625 0.1077623 0.8223653 0.1497901 0.8463742 0.1076689 0.8462643 0.7205857 0.826182 0.7455378 0.8659312 0.7136674 0.8542503 0.7221003 0.04783821 0.7457848 0.006268203 0.7694122 0.04178136 0.6397588 0.8268893 0.6153185 0.8699294 0.591364 0.8331291 0.7273988 0.790837 0.6807265 0.8131433 0.680228 0.7890458 0.6344691 0.08241164 0.5924942 0.04007619 0.6419151 0.04727637 0.6323047 0.7920448 0.6807265 0.8131433 0.6397588 0.8268893 0.7273988 0.790837 0.7687472 0.8311774 0.7205857 0.826182 0.6419151 0.04727637 0.6181834 0.003915607 0.6514859 0.01794004 0.6820916 0.06046211 0.7132669 0.01898282 0.7221003 0.04783821 0.6820916 0.06046211 0.6514859 0.01794004 0.6824894 0.02631366 0.6807265 0.8131433 0.7136674 0.8542503 0.6808734 0.8494247 0.7292931 0.08208984 0.6820916 0.06046211 0.7221003 0.04783821 0.6323047 0.7920448 0.591364 0.8331291 0.5805943 0.8056689 0.7292931 0.08208984 0.7694122 0.04178136 0.7801848 0.06867283 0.6344691 0.08241164 0.6820916 0.06046211 0.6821222 0.08454251 0.6397588 0.8268893 0.6808734 0.8494247 0.6489923 0.8569802 0.5236508 0.9174775 0.4932797 0.9183397 0.5236508 0.8879687 0.4932797 0.9183397 0.4941418 0.8879686 0.5236508 0.8879687 0.554022 0.9183397 0.5236508 0.9174775 0.5236508 0.8879687 0.4932796 0.8575975 0.5236508 0.8584596 0.5236508 0.8879687 0.554022 0.8575975 0.5531598 0.8879687 0.5236508 0.8879687 0.5236508 0.8584596 0.554022 0.8575975 0.5236508 0.8879687 0.4941418 0.8879686 0.4932796 0.8575975 0.5236508 0.8879687 0.5808957 0.5565067 0.632714 0.566269 0.6323047 0.7920448 0.632714 0.566269 0.6807364 0.5688493 0.680228 0.7890458 0.6807364 0.5688493 0.7282116 0.5655938 0.7273988 0.790837 0.7282116 0.5655938 0.7800765 0.5553781 0.7800765 0.8039665 0.7801848 0.3169758 0.7284626 0.3072993 0.7292931 0.08208984 0.7284626 0.3072993 0.680483 0.3047396 0.6821222 0.08454251 0.6807364 0.5688493 0.6809396 0.4715 0.7081486 0.4684079 0.680483 0.3047396 0.6329363 0.3080105 0.6344691 0.08241164 0.6329363 0.3080105 0.5808542 0.3183041 0.5805943 0.06809955 0.6803553 0.402173 0.6806551 0.4261489 0.6563333 0.428189 0.680483 0.3047396 0.7284626 0.3072993 0.7084783 0.403131 0.7282116 0.5655938 0.7081486 0.4684079 0.7332963 0.4617999 0.680483 0.3047396 0.6803553 0.402173 0.6531212 0.4053097 0.6807364 0.5688493 0.632714 0.566269 0.6528311 0.4704924 0.7801848 0.3169758 0.735199 0.4084074 0.7084783 0.403131 0.6329363 0.3080105 0.6531212 0.4053097 0.6279466 0.4119672 0.5808957 0.5565067 0.6261216 0.4651537 0.6528311 0.4704924 0.2417858 0.9186457 0.2211201 0.9272059 0.2177482 0.923834 0.735199 0.4084074 0.73144 0.4317252 0.7056614 0.4275695 0.6809396 0.4715 0.6806845 0.4475439 0.7049792 0.4455525 0.6261216 0.4651537 0.6299374 0.4418505 0.6557 0.4460691 0.6531212 0.4053097 0.6563333 0.428189 0.6327255 0.4329789 0.7084783 0.403131 0.7056614 0.4275695 0.6806551 0.4261489 0.7081486 0.4684079 0.7049792 0.4455525 0.7285597 0.4408103 0.6528311 0.4704924 0.6557 0.4460691 0.6806845 0.4475439 0.7756507 0.9558147 0.7800765 0.9558147 0.7800765 0.9818326 0.2211201 0.9685373 0.2177483 0.9719092 0.2077916 0.9478716 0.9411472 0.3240239 0.9325872 0.3446896 0.9278187 0.3446896 0.961813 0.3739155 0.961813 0.3786839 0.9377754 0.3687272 0.2211201 0.9272059 0.2125601 0.9478716 0.2077916 0.9478716 0.2211201 0.9685373 0.2417858 0.9770974 0.2417858 0.9818658 0.961813 0.3154637 0.9411472 0.3240239 0.9377754 0.320652 0.9411472 0.3653554 0.9377754 0.3687272 0.9278187 0.3446896 0.7978646 0.9168454 0.821902 0.9068888 0.821902 0.9096572 0.7756507 0.9037787 0.7800765 0.9037787 0.7800765 0.9297966 0.9770184 0.2575035 0.9814441 0.2575035 0.9814441 0.2835215 0.9770184 0.2054671 0.9814442 0.2054671 0.9814441 0.2314853 0.7756507 0.9297966 0.7800765 0.9297966 0.7800765 0.9558147 0.7756509 0.8777607 0.7800765 0.8777607 0.7800765 0.9037787 0.9770184 0.2314853 0.9814441 0.2314853 0.9814441 0.2575035 0.9770184 0.1794489 0.9814442 0.1794489 0.9814442 0.2054671 0.8589845 0.9378057 0.8617531 0.9378057 0.8708987 0.9598856 0.8689412 0.9137681 0.8929787 0.9038115 0.8929787 0.9065799 0.821902 0.9748773 0.7978646 0.9649205 0.7998221 0.9629628 0.7879078 0.940883 0.7978646 0.9168454 0.7998221 0.9188031 0.8689411 0.9618434 0.8708987 0.9598856 0.8929787 0.9690315 0.8589845 0.9378057 0.8689412 0.9137681 0.8708988 0.9157258 0.7978646 0.9649205 0.7879078 0.940883 0.7906764 0.940883 0.1578394 0.8223653 0.1999603 0.8225851 0.1998671 0.8463741 0.1577147 0.8701633 0.1998361 0.8701634 0.1998671 0.8939527 0.5974158 0.8777607 0.621205 0.8777607 0.6380266 0.8945822 0.6380266 0.8945822 0.6380266 0.9183715 0.6212051 0.9351931 0.6212051 0.9351931 0.5974159 0.9351931 0.5805943 0.9183716 0.5805943 0.9183716 0.5805943 0.8945824 0.5974158 0.8777607 0.5974158 0.8777607 0.6380266 0.8945822 0.5805943 0.9183716 0.1497902 0.8939527 0.1498833 0.9177416 0.1077624 0.9179615 0.1497901 0.8463742 0.1497592 0.8701634 0.1076377 0.8701634 0.1998671 0.8939527 0.1999603 0.9177417 0.1578394 0.9179615 0.1998671 0.8463741 0.1998361 0.8701634 0.1577147 0.8701633 0.1076377 0.8701634 0.1497592 0.8701634 0.1497902 0.8939527 0.1077623 0.8223653 0.1498833 0.8225851 0.1497901 0.8463742 0.7205857 0.826182 0.7687472 0.8311774 0.7455378 0.8659312 0.7221003 0.04783821 0.7132669 0.01898282 0.7457848 0.006268203 0.6397588 0.8268893 0.6489923 0.8569802 0.6153185 0.8699294 0.7273988 0.790837 0.7205857 0.826182 0.6807265 0.8131433 0.6344691 0.08241164 0.5805943 0.06809955 0.5924942 0.04007619 0.6323047 0.7920448 0.680228 0.7890458 0.6807265 0.8131433 0.7273988 0.790837 0.7800765 0.8039665 0.7687472 0.8311774 0.6419151 0.04727637 0.5924942 0.04007619 0.6181834 0.003915607 0.6820916 0.06046211 0.6824894 0.02631366 0.7132669 0.01898282 0.6820916 0.06046211 0.6419151 0.04727637 0.6514859 0.01794004 0.6807265 0.8131433 0.7205857 0.826182 0.7136674 0.8542503 0.7292931 0.08208984 0.6821222 0.08454251 0.6820916 0.06046211 0.6323047 0.7920448 0.6397588 0.8268893 0.591364 0.8331291 0.7292931 0.08208984 0.7221003 0.04783821 0.7694122 0.04178136 0.6344691 0.08241164 0.6419151 0.04727637 0.6820916 0.06046211 0.6397588 0.8268893 0.6807265 0.8131433 0.6808734 0.8494247</float_array>
          <technique_common>
            <accessor source="#Cylinder-mesh-map-0-array" count="474" stride="2">
              <param name="S" type="float"/>
              <param name="T" type="float"/>
            </accessor>
          </technique_common>
        </source>
        <vertices id="Cylinder-mesh-vertices">
          <input semantic="POSITION" source="#Cylinder-mesh-positions"/>
        </vertices>
        <triangles material="Plastic_Bottles-material" count="158">
          <input semantic="VERTEX" source="#Cylinder-mesh-vertices" offset="0"/>
          <input semantic="NORMAL" source="#Cylinder-mesh-normals" offset="1"/>
          <input semantic="TEXCOORD" source="#Cylinder-mesh-map-0" offset="2" set="0"/>
          <p>1 0 0 58 1 1 57 2 2 2 3 3 59 4 4 58 1 5 3 5 6 60 6 7 59 4 8 4 7 9 61 8 10 60 6 11 5 9 12 62 10 13 61 8 14 6 11 15 63 12 16 62 10 17 3 5 18 12 13 19 4 7 20 7 14 21 64 15 22 63 12 23 8 16 24 57 2 25 64 15 26 69 17 27 70 18 28 0 19 29 15 20 30 24 21 31 16 22 32 7 14 33 14 23 34 15 20 35 4 7 36 13 24 37 5 9 38 7 14 39 16 22 40 8 16 41 3 5 42 10 25 43 11 26 44 5 9 45 14 23 46 6 11 47 8 16 48 9 27 49 1 0 50 1 0 51 10 25 52 2 3 53 21 28 54 28 29 55 29 30 56 13 24 57 22 31 58 14 23 59 11 26 60 20 32 61 12 13 62 9 27 63 18 33 64 10 25 65 16 22 66 17 34 67 9 27 68 14 23 69 23 35 70 15 20 71 12 13 72 21 36 73 13 24 74 10 25 75 19 37 76 11 26 77 32 38 78 33 39 79 25 40 80 18 41 81 27 42 82 19 43 83 24 44 84 31 45 85 32 46 86 21 28 87 30 47 88 22 48 89 20 49 90 27 42 91 28 29 92 18 41 93 25 50 94 26 51 95 17 52 96 32 46 97 25 50 98 22 48 99 31 45 100 23 53 101 38 54 102 45 55 103 46 56 104 30 57 105 39 58 106 31 59 107 28 60 108 37 61 109 29 62 110 26 63 111 35 64 112 27 65 113 31 59 114 40 66 115 32 38 116 29 62 117 38 67 118 30 57 119 27 65 120 36 68 121 28 60 122 25 40 123 34 69 124 26 63 125 35 70 126 44 71 127 36 72 128 34 73 129 41 74 130 42 75 131 33 76 132 48 77 133 41 74 134 39 78 135 46 56 136 47 79 137 36 72 138 45 55 139 37 80 140 35 70 141 42 75 142 43 81 143 40 82 144 47 79 145 48 77 146 41 83 147 50 84 148 42 85 149 43 86 150 52 87 151 44 88 152 49 89 153 55 90 154 53 91 155 56 92 156 41 83 157 48 93 158 54 94 159 47 95 160 46 96 161 52 87 162 45 97 163 44 88 164 50 84 165 43 86 166 42 85 167 47 95 168 56 92 169 48 93 170 45 97 171 54 94 172 46 96 173 77 98 174 69 99 175 68 100 176 75 101 177 69 102 178 76 103 179 79 104 180 65 105 181 80 106 182 60 6 183 78 107 184 59 4 185 64 15 186 80 106 187 73 108 188 58 1 189 78 107 190 79 104 191 60 6 192 76 103 193 77 98 194 73 108 195 65 109 196 72 110 197 74 111 198 70 112 199 75 101 200 74 111 201 72 110 202 71 113 203 78 107 204 68 100 205 67 114 206 62 10 207 74 111 208 75 101 209 58 1 210 80 106 211 57 2 212 62 10 213 76 103 214 61 8 215 64 15 216 74 111 217 63 12 218 79 104 219 67 115 220 66 116 221 71 117 222 72 118 223 0 19 224 72 118 225 65 119 226 0 19 227 70 18 228 71 117 229 0 19 230 66 120 231 67 121 232 0 19 233 68 122 234 69 17 235 0 19 236 67 121 237 68 122 238 0 19 239 65 119 240 66 120 241 0 19 242 1 0 243 2 3 244 58 1 245 2 3 246 3 5 247 59 4 248 3 5 249 4 7 250 60 6 251 4 7 252 5 9 253 61 8 254 5 9 255 6 11 256 62 10 257 6 11 258 7 14 259 63 12 260 3 5 261 11 26 262 12 13 263 7 14 264 8 16 265 64 15 266 8 16 267 1 0 268 57 2 269 15 20 270 23 35 271 24 21 272 7 14 273 6 11 274 14 23 275 4 7 276 12 13 277 13 24 278 7 14 279 15 20 280 16 22 281 3 5 282 2 3 283 10 25 284 5 9 285 13 24 286 14 23 287 8 16 288 16 22 289 9 27 290 1 0 291 9 27 292 10 25 293 21 28 294 20 49 295 28 29 296 13 24 297 21 36 298 22 31 299 11 26 300 19 37 301 20 32 302 9 27 303 17 34 304 18 33 305 16 22 306 24 21 307 17 34 308 14 23 309 22 31 310 23 35 311 12 13 312 20 32 313 21 36 314 10 25 315 18 33 316 19 37 317 32 38 318 40 66 319 33 39 320 18 41 321 26 51 322 27 42 323 24 44 324 23 53 325 31 45 326 21 28 327 29 30 328 30 47 329 20 49 330 19 43 331 27 42 332 18 41 333 17 52 334 25 50 335 17 52 336 24 44 337 32 46 338 22 48 339 30 47 340 31 45 341 38 54 342 37 80 343 45 55 344 30 57 345 38 67 346 39 58 347 28 60 348 36 68 349 37 61 350 26 63 351 34 69 352 35 64 353 31 59 354 39 58 355 40 66 356 29 62 357 37 61 358 38 67 359 27 65 360 35 64 361 36 68 362 25 40 363 33 39 364 34 69 365 35 70 366 43 81 367 44 71 368 34 73 369 33 76 370 41 74 371 33 76 372 40 82 373 48 77 374 39 78 375 38 54 376 46 56 377 36 72 378 44 71 379 45 55 380 35 70 381 34 73 382 42 75 383 40 82 384 39 78 385 47 79 386 41 83 387 49 123 388 50 84 389 43 86 390 51 124 391 52 87 392 51 89 393 50 89 394 49 89 395 49 89 396 56 89 397 55 90 398 55 90 399 54 125 400 53 91 401 53 91 402 52 89 403 51 89 404 51 89 405 49 89 406 53 91 407 56 92 408 49 123 409 41 83 410 54 94 411 55 126 412 47 95 413 52 87 414 53 127 415 45 97 416 50 84 417 51 124 418 43 86 419 47 95 420 55 126 421 56 92 422 45 97 423 53 127 424 54 94 425 77 98 426 76 103 427 69 99 428 75 101 429 70 112 430 69 102 431 79 104 432 66 116 433 65 105 434 60 6 435 77 98 436 78 107 437 64 15 438 57 2 439 80 106 440 58 1 441 59 4 442 78 107 443 60 6 444 61 8 445 76 103 446 73 108 447 80 106 448 65 109 449 74 111 450 71 128 451 70 112 452 74 111 453 73 108 454 72 110 455 78 107 456 77 98 457 68 100 458 62 10 459 63 12 460 74 111 461 58 1 462 79 104 463 80 106 464 62 10 465 75 101 466 76 103 467 64 15 468 73 108 469 74 111 470 79 104 471 78 107 472 67 115 473</p>
        </triangles>
      </mesh>
    </geometry>
  </library_geometries>
  <library_visual_scenes>
    <visual_scene id="Scene" name="Scene">
      <node id="Plastic_Bottle_01_GEO" name="Plastic_Bottle_01_GEO" type="NODE">
        <matrix sid="transform">1 0 0 0.009953578 0 1 0 0 0 0 1 0 0 0 0 1</matrix>
        <instance_geometry url="#Cylinder-mesh" name="Plastic_Bottle_01_GEO">
          <bind_material>
            <technique_common>
              <instance_material symbol="Plastic_Bottles-material" target="#Plastic_Bottles-material">
                <bind_vertex_input semantic="UVMap" input_semantic="TEXCOORD" input_set="0"/>
              </instance_material>
            </technique_common>
          </bind_material>
        </instance_geometry>
      </node>
    </visual_scene>
  </library_visual_scenes>
  <scene>
    <instance_visual_scene url="#Scene"/>
  </scene>
</COLLADA>