<?xml version="1.0" encoding="utf-8"?>
<COLLADA xmlns="http://www.collada.org/2005/11/COLLADASchema" version="1.4.1" xmlns:xsi="http://www.w3.org/2001/XMLSchema-instance">
  <asset>
    <contributor>
      <author>Blender User</author>
      <authoring_tool>Blender 4.2.10 LTS commit date:2025-05-19, commit time:14:56, hash:930497d46279</authoring_tool>
    </contributor>
    <created>2026-03-04T00:10:24</created>
    <modified>2026-03-04T00:10:24</modified>
    <unit name="meter" meter="1"/>
    <up_axis>Z_UP</up_axis>
  </asset>
  <library_effects>
    <effect id="Plastic_Bottles-effect">
      <profile_COMMON>
        <newparam sid="PlasticBottles_Plastic_Bottles_AlbedoTransparency_png-surface">
          <surface type="2D">
            <init_from>PlasticBottles_Plastic_Bottles_AlbedoTransparency_png</init_from>
          </surface>
        </newparam>
        <newparam sid="PlasticBottles_Plastic_Bottles_AlbedoTransparency_png-sampler">
          <sampler2D>
            <source>PlasticBottles_Plastic_Bottles_AlbedoTransparency_png-surface</source>
          </sampler2D>
        </newparam>
        <technique sid="common">
          <lambert>
            <emission>
              <color sid="emission">0 0 0 1</color>
            </emission>
            <diffuse>
              <texture texture="PlasticBottles_Plastic_Bottles_AlbedoTransparency_png-sampler" texcoord="UVMap"/>
            </diffuse>
            <index_of_refraction>
              <float sid="ior">1.45</float>
            </index_of_refraction>
          </lambert>
        </technique>
      </profile_COMMON>
    </effect>
  </library_effects>
  <library_images>
    <image id="PlasticBottles_Plastic_Bottles_AlbedoTransparency_png" name="PlasticBottles_Plastic_Bottles_AlbedoTransparency_png">
      <init_from>PlasticBottles_Plastic_Bottles_AlbedoTransparency.png</init_from>
    </image>
  </library_images>
  <library_materials>
    <material id="Plastic_Bottles-material" name="Plastic_Bottles">
      <instance_effect url="#Plastic_Bottles-effect"/>
    </material>
  </library_materials>
  <library_geometries>
    <geometry id="Cylinder_002-mesh" name="Cylinder.002">
      <mesh>
        <source id="Cylinder_002-mesh-positions">
          <float_array id="Cylinder_002-mesh-positions-array" count="291">-0.2254447 -0.0518074 0.17093 0.04256343 0.0544638 0.06413173 0.06465125 0.04292279 0.02626556 0.05496251 -0.002845466 -8.97348e-5 0.05882734 -0.05134749 0.00442022 0.0383684 -0.07143771 0.04839617 0.01790952 -0.05134749 0.09237211 0.02735382 -0.002845466 0.1058104 0.03892374 0.02121406 0.08676981 0.1593142 0.02174693 0.1046638 0.1666494 0.01454395 0.08889698 0.1696876 -0.002845466 0.08236622 0.1666494 -0.02023494 0.08889698 0.159314 -0.02743792 0.1046639 0.1519789 -0.02023494 0.1204305 0.1489406 -0.002845466 0.1269613 0.1519789 0.01454395 0.1204305 0.197979 0.0182982 0.1244737 0.2052516 0.01244771 0.1113924 0.2085213 -0.002271413 0.1058343 0.2058727 -0.01723688 0.1110551 0.1988575 -0.02368217 0.1239966 0.1915848 -0.01783168 0.1370776 0.1883152 -0.003112494 0.1426358 0.1909636 0.01185292 0.137415 0.1978782 0.02311855 0.1245285 0.2068209 0.01592445 0.1084432 0.2108416 -0.002174794 0.1016085 0.2075847 -0.02057713 0.1080283 0.1989583 -0.02850252 0.1239417 0.1900154 -0.02130848 0.1400269 0.1859949 -0.003209114 0.1468615 0.1892517 0.0151931 0.1404417 0.2004321 0.02315604 0.1259316 0.2093749 0.015962 0.1098462 0.2133955 -0.002137303 0.1030117 0.2101387 -0.02053964 0.1094313 0.2015125 -0.02846503 0.1253448 0.1925696 -0.02127099 0.14143 0.1885489 -0.003171622 0.1482646 0.1918057 0.01523065 0.141845 0.2005147 0.0192101 0.1258867 0.2080904 0.01311588 0.1122605 0.2114962 -0.002216398 0.1064709 0.2087373 -0.01780527 0.111909 0.2014298 -0.02451908 0.1253896 0.1938542 -0.0184248 0.1390159 0.1904482 -0.003092527 0.1448054 0.1932072 0.01249629 0.1393673 0.2056897 0.01902526 0.1262391 0.2122133 0.01261943 0.1122173 0.2149152 -0.002845466 0.1064093 0.2122133 -0.01831042 0.1122173 0.2056897 -0.02471625 0.1262391 0.1991662 -0.01831042 0.1402609 0.1964644 -0.002845466 0.1460689 0.1991662 0.01261943 0.1402609 0.2110173 0.02468317 0.126421 0.2182286 0.01624685 0.1081213 0.2206972 -0.00361979 0.1005534 0.2169766 -0.0232793 0.1081505 0.2092466 -0.03121531 0.1264623 0.2020353 -0.02277898 0.1447619 0.1995669 -0.002912282 0.1523298 0.2032874 0.01674717 0.1447328 0.227425 0.02203702 0.1363511 0.2348467 0.0147491 0.1203983 0.2379209 -0.002845466 0.1137905 0.2348467 -0.0204401 0.1203983 0.227425 -0.02772802 0.1363511 0.2200033 -0.0204401 0.1523037 0.2169291 -0.002845466 0.1589117 0.2200033 0.0147491 0.1523037 -0.2193775 -0.06599187 0.2160687 -0.2438665 -0.02101862 0.2163314 -0.2607037 0.004048883 0.1913323 -0.2642621 -0.005473434 0.1398278 -0.2497146 -0.04400771 0.1196241 -0.2234231 -0.08898091 0.1261226 -0.200789 -0.1140485 0.1555163 -0.2015813 -0.1045261 0.1907016 -0.2329337 -0.06661057 0.2034513 -0.2474291 -0.04141867 0.2006809 -0.2572714 -0.02737689 0.185137 -0.2592646 -0.03271096 0.1562865 -0.2485724 -0.05429601 0.1447912 -0.2338451 -0.07948809 0.1484313 -0.2237098 -0.0935297 0.1650745 -0.2241177 -0.08819574 0.1849185 -0.00411421 0.04575794 0.1079623 -0.02423816 0.04387772 0.0441839 -0.04034793 0.04995101 0.01807725 -0.05496245 0.002845466 8.97348e-5 -0.07336241 -0.04599684 0.02434414 -0.05410957 -0.06796479 0.08485478 -0.01833468 -0.05018991 0.1092188 -0.003720104 -0.003084361 0.1272063</float_array>
          <technique_common>
            <accessor source="#Cylinder_002-mesh-positions-array" count="97" stride="3">
              <param name="X" type="float"/>
              <param name="Y" type="float"/>
              <param name="Z" type="float"/>
            </accessor>
          </technique_common>
        </source>
        <source id="Cylinder_002-mesh-normals">
          <float_array id="Cylinder_002-mesh-normals-array" count="549">-0.00376594 0.9973542 0.07259845 0.03678613 0.9986045 -0.03789275 0.1781715 0.8082658 0.5612142 0.2715474 0.2052534 -0.9402835 -0.04211986 0.8753457 -0.4816597 -0.277153 0.01831233 -0.9606513 0.0636124 -0.8735876 -0.4824917 -0.2894812 -0.3129332 -0.9045848 0.07041442 -0.9455636 0.3177285 -0.02905732 -0.9764769 -0.2136553 -0.09627836 -0.9154312 -0.3907892 0.1838191 -0.4267139 0.8855089 0.3767936 -0.6890191 0.6190957 0.3018679 -0.9447085 0.1280695 -0.1409726 0.6304727 0.7633028 -0.2901953 0.01491826 0.9568513 -0.2019351 0.7105337 0.6740653 0.5613409 0.1335132 0.8167441 0.5201795 -0.3439981 0.7817152 0.5726467 0.3744259 0.7293018 0.375485 0.3026269 0.8760298 0.06846541 0.9964527 0.04893559 0.1251871 0.9886866 0.08262658 0.2395561 0.7448589 -0.6227344 0.5548646 -0.004182755 -0.8319303 0.1330964 -0.8766244 0.4624014 0.1873891 -0.978691 0.08395969 -0.1280493 -0.6901282 0.7122687 -0.1194763 0.6068789 0.7857629 0.453588 0.6867629 -0.567992 0.4678912 -0.6781103 -0.5667842 0.2409164 -0.5963585 -0.7657126 -0.003908097 -0.274917 0.9614601 -0.8763533 -0.01286673 -0.481497 -0.8763576 -0.01288461 -0.481489 -0.8763585 -0.01288288 -0.4814872 -0.3671682 -0.02140408 0.9299083 0.0902124 -0.9958063 0.01522153 0.5201473 0.01788657 -0.8538892 -0.2439211 0.6927282 0.6786974 -0.2278684 -0.7221691 0.6531063 0.3989682 -0.6875948 -0.6066613 0.3844724 0.7141501 -0.5849536 -0.3550525 0.6927443 0.6277286 -0.4811719 -0.02003175 0.8763974 -0.3550552 0.692741 0.6277307 -0.8763641 -0.01285535 -0.4814776 -0.8763669 -0.01285773 -0.4814726 -0.8763632 -0.01285457 -0.4814794 -0.8763671 -0.01285868 -0.4814721 -0.8763651 -0.01286655 -0.4814758 -0.8763598 -0.0128625 -0.4814854 -0.8763588 -0.01285159 -0.4814873 -0.8763594 -0.01286262 -0.481486 -0.8763667 -0.01285988 -0.4814729 -0.8763682 -0.01285707 -0.4814702 -0.8763527 -0.01286643 -0.4814981 -0.8763659 -0.01286679 -0.4814741 -0.8763586 -0.01285165 -0.4814878 0.8763682 0.01289236 0.4814695 0.8763642 0.01287353 0.4814773 0.8763677 0.01289314 0.4814701 0.02091568 -0.9997169 -0.0113548 -0.3254287 -0.7210757 0.6116749 -0.325434 -0.7210661 0.6116833 0.4812015 0.02003169 -0.8763811 0.355039 -0.6927444 -0.6277361 0.3550375 -0.6927458 -0.6277355 -0.02092039 0.9997166 0.01136362 0.3254525 0.7210712 -0.6116675 0.3254524 0.721073 -0.6116653 -0.02092152 0.9997165 0.01136654 -0.4811716 -0.02003175 0.8763976 0.0209217 -0.9997166 -0.011366 0.481201 0.02003061 -0.8763814 0.01560306 0.9913404 0.1303874 -0.1083517 0.7236776 0.6815795 0.04456162 0.9964398 -0.07156777 0.8763749 0.0128659 0.4814578 0.8763706 0.0128715 0.4814655 0.8763743 0.01286685 0.4814587 0.8763588 0.01286506 0.4814871 0.876358 0.01288086 0.4814881 0.8763573 0.01288259 0.4814894 0.8763673 0.01287299 0.4814714 0.8763667 0.01287102 0.4814726 0.8763655 0.01287198 0.4814748 0.8763703 0.01287066 0.4814659 0.8763688 0.01287096 0.481469 0.8763679 0.01287275 0.4814702 0.8763586 0.01286363 0.4814874 -0.8211517 -0.4766762 -0.3138311 -0.8911173 -0.4425384 0.1003484 -0.8884711 -0.4317415 0.1556225 -0.1520733 -0.6697059 0.7268891 -0.201356 -0.003089845 0.9795132 -0.2047013 -0.02005922 0.9786189 -0.03319257 -0.6943276 -0.7188933 -0.03727626 -0.9947372 -0.09543895 -0.04952913 -0.9977661 0.04483091 -0.007883012 0.06140619 -0.9980818 0.06753909 0.6191508 -0.7823624 -0.01358443 -0.0245015 -0.9996076 -0.1348552 0.6407026 0.7558534 -0.1461756 -0.7260988 0.671873 -0.02566599 -0.6433852 -0.7651123 0.08140796 0.7717877 -0.6306478 -0.3549239 -0.001990199 0.9348932 -0.2224649 0.6947982 0.6839334 -0.2144978 0.7254543 0.6539931 -0.7603906 -0.2574712 -0.5962505 -0.7110381 0.01630014 -0.7029646 -0.762878 -0.239952 -0.6003668 -0.6592859 0.3925887 -0.6412615 -0.6901533 0.6427807 -0.3324477 -0.6699922 0.3373486 -0.6612915 -0.6984397 0.6706834 -0.2497316 -0.7987318 0.5646373 0.2078755 -0.8992287 0.01328188 0.4372773 -0.8960106 0.002347469 0.4440265 -0.8207027 -0.4467831 -0.3561348 -0.7023037 0.03188383 -0.7111632 -0.811621 0.5253815 0.2554326 0.9066807 2.20448e-6 0.4218179 0.9066831 -1.81574e-6 0.4218126 0.9066817 0 0.4218155 -0.1867784 -0.7168189 0.6717771 0.141084 -0.9863471 0.08494043 -0.2046631 -0.6904926 0.6937817 0.6067979 -0.02959012 -0.7943052 0.4778763 -0.6996967 -0.5310922 0.4794064 -0.6926313 -0.538917 0.1443197 0.9894493 0.01272612 0.466113 0.7049566 -0.5345791 0.4797899 0.6582559 -0.5800868 0.1170409 0.9899471 0.07941085 -0.3544798 8.97039e-4 0.9350633 0.1630057 -0.9852761 0.05157852 0.6141729 0.002907574 -0.7891662 -0.7770093 -0.2804095 0.5635841 -0.5981575 -0.5108169 0.6174736 -0.8278392 -0.2468354 0.5037406 -0.9518443 -0.1529861 0.2656837 -0.9579232 -0.1525525 0.2431276 -0.9805303 -0.1948118 -0.02466982 -0.9732025 -0.2274436 -0.03385841 -0.8982466 -0.4111567 -0.1552526 -0.8749256 -0.4608639 -0.1486936 -0.7786319 -0.6147743 -0.1256381 -0.8050218 -0.5788811 -0.1297566 -0.6679898 -0.7421699 0.0545293 -0.6525074 -0.7556092 0.05735105 -0.6083527 -0.7254084 0.3220089 -0.5913636 -0.702779 0.3954629 -0.5830291 -0.4870293 0.6502919 -0.8715457 -0.4706075 0.1376117 -0.879762 -0.3224394 -0.349359 -0.7151788 -0.6265915 -0.3096811 -0.6134941 -0.7895232 -0.01668125 -0.5725936 -0.7339762 0.365261 -0.6385749 -0.4695403 0.6097163 -0.8168692 -0.193713 0.5433232 -0.9738346 -0.07080268 0.2159473 -0.9881255 -0.08519208 -0.1278689 0.4042779 -0.02122581 0.9143899 0.441568 -0.3420988 0.8294492 0.4021769 -0.8514003 0.3367065 0.2064968 -0.9634864 -0.1704497 -0.05501091 -0.7802464 -0.6230485 -0.3809224 -0.5046381 -0.7747506 -0.4435877 -0.376823 -0.8131633 -0.4402051 0.7534376 -0.4884173 -0.4549391 0.2727225 -0.8477339 0.03028064 0.9383714 0.3442998 0.2850316 0.5687896 0.7715151 -0.1298052 0.6529538 0.7461917 0.5280688 0.3561526 0.7709077 0.581035 0.4136276 0.7009356 0.9066831 1.81574e-6 0.4218127 0.9066808 -2.20448e-6 0.4218177 0.9066813 1.83347e-6 0.4218164 0.9066819 0 0.4218151 0.9066813 -1.83346e-6 0.4218164</float_array>
          <technique_common>
            <accessor source="#Cylinder_002-mesh-normals-array" count="183" stride="3">
              <param name="X" type="float"/>
              <param name="Y" type="float"/>
              <param name="Z" type="float"/>
            </accessor>
          </technique_common>
        </source>
        <source id="Cylinder_002-mesh-map-0">
          <float_array id="Cylinder_002-mesh-map-0-array" count="1140">0.3443521 0.4439648 0.273488 0.3756749 0.359306 0.3574888 0.003915667 0.4153935 0.07573634 0.2965503 0.04524928 0.4257872 0.07573634 0.2965503 0.1069094 0.4241224 0.04524928 0.4257872 0.1069094 0.4241224 0.1918461 0.2987195 0.1727787 0.4451201 0.1918461 0.2987195 0.2656567 0.420829 0.1727787 0.4451201 0.5012852 0.3559857 0.4875352 0.3063572 0.5348735 0.2652347 0.3987303 0.4213384 0.5097166 0.5609101 0.486134 0.575659 0.4331844 0.3864963 0.4233022 0.3323504 0.4875352 0.3063572 0.3987303 0.4213384 0.359306 0.3574888 0.4233022 0.3323504 0.486134 0.575659 0.5030664 0.6543616 0.4627463 0.5912101 0.007607758 0.2746302 0.1007488 0.098122 0.07573634 0.2965503 0.2656567 0.3012188 0.1609111 0.09584414 0.190768 0.09159368 0.3987303 0.4213384 0.4627463 0.5912101 0.3443521 0.4439648 0.3080683 0.4951545 0.4627463 0.5912101 0.440276 0.6094582 0.07573634 0.2965503 0.1300473 0.09823209 0.1309244 0.2889759 0.4331844 0.3864963 0.5320071 0.5493701 0.5097166 0.5609101 0.1309244 0.2889759 0.1609111 0.09584414 0.1918461 0.2987195 0.09769451 0.01639133 0.1305735 0.003915667 0.1303282 0.01214283 0.5320071 0.5493701 0.5493759 0.6188207 0.5097166 0.5609101 0.1300473 0.09823209 0.1617227 0.01378434 0.1609111 0.09584414 0.07166343 0.09606599 0.09769451 0.01639133 0.1007488 0.098122 0.5097166 0.5609101 0.5279633 0.6392226 0.486134 0.575659 0.1609111 0.09584414 0.1876983 0.02381479 0.190768 0.09159368 0.1007488 0.098122 0.1303282 0.01214283 0.1300473 0.09823209 0.4627463 0.5912101 0.4780958 0.6627048 0.440276 0.6094582 0.9736534 0.3650587 0.9696447 0.3922405 0.9696444 0.3650587 0.4780958 0.6627048 0.5066035 0.661076 0.4774113 0.6701313 0.5030664 0.6543616 0.5320839 0.644615 0.5066035 0.661076 0.5493759 0.6188207 0.572763 0.5988772 0.5552478 0.6240482 0.1303282 0.01214283 0.1634204 0.006464421 0.1617227 0.01378434 0.09769451 0.01639133 0.06360644 0.02130502 0.09547924 0.007824897 0.5493759 0.6188207 0.5320839 0.644615 0.5279633 0.6392226 0.1876983 0.02381479 0.1634204 0.006464421 0.1931211 0.01821672 0.6562598 0.9383881 0.6512874 0.9132754 0.6600993 0.934549 0.9732111 0.03109776 0.9692023 0.003915846 0.9732115 0.003915667 0.9732114 0.08546185 0.9692024 0.05827975 0.9732111 0.05827975 0.9736533 0.337877 0.9696447 0.3106954 0.9736536 0.3106955 0.9736534 0.3650587 0.9696447 0.337877 0.9736533 0.337877 0.9736536 0.4194218 0.9696447 0.3922405 0.9736536 0.3922405 0.9732111 0.05827975 0.9692022 0.03109782 0.9732111 0.03109776 0.9732115 0.1126438 0.9692026 0.08546185 0.9732114 0.08546185 0.9707465 0.903847 0.9752155 0.8824782 0.9777225 0.9053676 0.65626 0.8881627 0.6813727 0.8831901 0.6600993 0.892002 0.6996061 0.8881627 0.6946335 0.9132754 0.6892039 0.9132754 0.6813726 0.9487904 0.6600993 0.934549 0.6813727 0.943361 0.6458579 0.9132754 0.6600993 0.892002 0.6512874 0.9132754 0.7247187 0.9487904 0.7034453 0.9345489 0.7247187 0.943361 0.6996058 0.9383881 0.6946335 0.9132754 0.7034453 0.9345489 0.6996061 0.8881627 0.7247186 0.8831901 0.7034453 0.892002 0.227259 0.8422437 0.2441833 0.8223653 0.2475369 0.8313345 0.9734768 0.835812 0.9760671 0.8594676 0.9677143 0.8581055 0.9573205 0.2242044 0.9567054 0.2019301 0.9626858 0.201812 0.9590526 0.2471654 0.9635265 0.2686116 0.9542831 0.2475219 0.9670367 0.8811216 0.9760671 0.8594676 0.9752155 0.8824782 0.9626858 0.201812 0.9616851 0.1794489 0.969187 0.1797226 0.9573205 0.2242044 0.9542831 0.2475219 0.9524839 0.2245662 0.9754717 0.9263835 0.9777225 0.9053676 0.9808966 0.9281741 0.8912177 0.0333119 0.9155219 0.06141591 0.890164 0.06273347 0.2187705 0.8636483 0.2178621 0.8919532 0.2077916 0.8642886 0.9446526 0.1904285 0.9203923 0.1988718 0.9425169 0.1794489 0.9280264 0.2063592 0.912963 0.2273594 0.9203923 0.1988718 0.9446526 0.2679272 0.9206289 0.2557844 0.9289924 0.2510464 0.2187705 0.8636483 0.2185783 0.8368954 0.227259 0.8422437 0.2269804 0.885161 0.2437103 0.906046 0.2178621 0.8919532 0.9229668 0.2288226 0.9206289 0.2557844 0.912963 0.2273594 0.8511531 0.8805333 0.832629 0.8990575 0.806432 0.8990575 0.8935611 0.4259264 0.9143514 0.3948172 0.9199876 0.4204007 0.8841523 0.3390069 0.9120138 0.3687246 0.8819597 0.3683657 0.8898037 0.09217184 0.9193113 0.1135999 0.8919423 0.1215345 0.890164 0.06273347 0.9160414 0.08760756 0.8898037 0.09217184 0.8912177 0.0333119 0.9193113 0.009179353 0.9166864 0.03524464 0.885616 0.3975783 0.9120138 0.3687246 0.9143514 0.3948172 0.8922268 0.3106954 0.9138373 0.3425911 0.8841523 0.3390069 0.5719007 0.7135258 0.5180447 0.7269117 0.5687016 0.6779626 0.8507173 0.1305995 0.8747036 0.1716176 0.8213494 0.1637836 0.8507173 0.1305995 0.788016 0.09972119 0.8320456 0.09471452 0.8320456 0.09471452 0.8154968 0.04291081 0.8479248 0.06161099 0.8479248 0.06161099 0.876279 0.003915667 0.8819723 0.0397675 0.539947 0.8051039 0.5702056 0.8497663 0.5098277 0.8376076 0.539947 0.8051039 0.4932797 0.7902627 0.5305511 0.7784393 0.5305511 0.7784393 0.5180447 0.7269117 0.5406298 0.7387275 0.8297331 0.3629937 0.8731594 0.3436343 0.8741284 0.3863275 0.8297331 0.3629937 0.8741284 0.3863275 0.8534006 0.4137466 0.8297331 0.3629937 0.8534006 0.4137466 0.8098043 0.4137466 0.8297331 0.3629937 0.8098043 0.4137466 0.788016 0.3810883 0.8297331 0.3629937 0.788016 0.3810883 0.7889029 0.3383183 0.8297331 0.3629937 0.7889029 0.3383183 0.8112657 0.3106954 0.8297331 0.3629937 0.8112657 0.3106954 0.8417454 0.3134698 0.8297331 0.3629937 0.8417454 0.3134698 0.8731594 0.3436343 0.4233022 0.3323504 0.4050372 0.01416844 0.4690939 0.03128588 0.4875352 0.3063572 0.4690939 0.03128588 0.514247 0.04383724 0.5348735 0.2652347 0.514247 0.04383724 0.572763 0.03770124 0.1727787 0.4451201 0.2613887 0.6841083 0.1922177 0.718935 0.1364986 0.7549252 0.1727787 0.4451201 0.1922177 0.718935 0.04524928 0.4257872 0.1364986 0.7549252 0.06794124 0.8022314 0.003915667 0.4153935 0.06794124 0.8022314 0.01470941 0.8145339 0.359306 0.3574888 0.3353835 0.003915607 0.4050372 0.01416844 0.3443521 0.4439648 0.3080683 0.4951545 0.273488 0.3756749 0.003915667 0.4153935 0.007607758 0.2746302 0.07573634 0.2965503 0.07573634 0.2965503 0.1309244 0.2889759 0.1069094 0.4241224 0.1069094 0.4241224 0.1309244 0.2889759 0.1918461 0.2987195 0.1918461 0.2987195 0.2656567 0.3012188 0.2656567 0.420829 0.5012852 0.3559857 0.4331844 0.3864963 0.4875352 0.3063572 0.3987303 0.4213384 0.4331844 0.3864963 0.5097166 0.5609101 0.4331844 0.3864963 0.3987303 0.4213384 0.4233022 0.3323504 0.3987303 0.4213384 0.3443521 0.4439648 0.359306 0.3574888 0.486134 0.575659 0.5279633 0.6392226 0.5030664 0.6543616 0.007607758 0.2746302 0.07166343 0.09606599 0.1007488 0.098122 0.2656567 0.3012188 0.1918461 0.2987195 0.1609111 0.09584414 0.3987303 0.4213384 0.486134 0.575659 0.4627463 0.5912101 0.3080683 0.4951545 0.3443521 0.4439648 0.4627463 0.5912101 0.07573634 0.2965503 0.1007488 0.098122 0.1300473 0.09823209 0.4331844 0.3864963 0.5012852 0.3559857 0.5320071 0.5493701 0.1309244 0.2889759 0.1300473 0.09823209 0.1609111 0.09584414 0.09769451 0.01639133 0.09547924 0.007824897 0.1305735 0.003915667 0.5320071 0.5493701 0.5661942 0.5973041 0.5493759 0.6188207 0.1300473 0.09823209 0.1303282 0.01214283 0.1617227 0.01378434 0.07166343 0.09606599 0.06898373 0.02680081 0.09769451 0.01639133 0.5097166 0.5609101 0.5493759 0.6188207 0.5279633 0.6392226 0.1609111 0.09584414 0.1617227 0.01378434 0.1876983 0.02381479 0.1007488 0.098122 0.09769451 0.01639133 0.1303282 0.01214283 0.4627463 0.5912101 0.5030664 0.6543616 0.4780958 0.6627048 0.9736534 0.3650587 0.9736536 0.3922405 0.9696447 0.3922405 0.4780958 0.6627048 0.5030664 0.6543616 0.5066035 0.661076 0.5030664 0.6543616 0.5279633 0.6392226 0.5320839 0.644615 0.5493759 0.6188207 0.5661942 0.5973041 0.572763 0.5988772 0.1303282 0.01214283 0.1305735 0.003915667 0.1634204 0.006464421 0.09769451 0.01639133 0.06898373 0.02680081 0.06360644 0.02130502 0.5493759 0.6188207 0.5552478 0.6240482 0.5320839 0.644615 0.1876983 0.02381479 0.1617227 0.01378434 0.1634204 0.006464421 0.6562598 0.9383881 0.6458579 0.9132754 0.6512874 0.9132754 0.9732111 0.03109776 0.9692022 0.03109782 0.9692023 0.003915846 0.9732114 0.08546185 0.9692026 0.08546185 0.9692024 0.05827975 0.9736533 0.337877 0.9696447 0.337877 0.9696447 0.3106954 0.9736534 0.3650587 0.9696444 0.3650587 0.9696447 0.337877 0.9736536 0.4194218 0.9696444 0.4194219 0.9696447 0.3922405 0.9732111 0.05827975 0.9692024 0.05827975 0.9692022 0.03109782 0.9732115 0.1126438 0.9692025 0.1126438 0.9692026 0.08546185 0.9707465 0.903847 0.9670367 0.8811216 0.9752155 0.8824782 0.65626 0.8881627 0.6813727 0.8777607 0.6813727 0.8831901 0.6996061 0.8881627 0.7034453 0.892002 0.6946335 0.9132754 0.6813726 0.9487904 0.6562598 0.9383881 0.6600993 0.934549 0.6458579 0.9132754 0.65626 0.8881627 0.6600993 0.892002 0.7247187 0.9487904 0.6996058 0.9383881 0.7034453 0.9345489 0.6996058 0.9383881 0.6892039 0.9132754 0.6946335 0.9132754 0.6996061 0.8881627 0.7247187 0.8777607 0.7247186 0.8831901 0.227259 0.8422437 0.2185783 0.8368954 0.2441833 0.8223653 0.9734768 0.835812 0.9808966 0.8369538 0.9760671 0.8594676 0.9573205 0.2242044 0.9524839 0.2245662 0.9567054 0.2019301 0.9590526 0.2471654 0.969187 0.2678416 0.9635265 0.2686116 0.9670367 0.8811216 0.9677143 0.8581055 0.9760671 0.8594676 0.9626858 0.201812 0.9567054 0.2019301 0.9616851 0.1794489 0.9573205 0.2242044 0.9590526 0.2471654 0.9542831 0.2475219 0.9754717 0.9263835 0.9707465 0.903847 0.9777225 0.9053676 0.8912177 0.0333119 0.9166864 0.03524464 0.9155219 0.06141591 0.2187705 0.8636483 0.2269804 0.885161 0.2178621 0.8919532 0.9446526 0.1904285 0.9280264 0.2063592 0.9203923 0.1988718 0.9280264 0.2063592 0.9229668 0.2288226 0.912963 0.2273594 0.9446526 0.2679272 0.9411903 0.2768551 0.9206289 0.2557844 0.2187705 0.8636483 0.2077916 0.8642886 0.2185783 0.8368954 0.2269804 0.885161 0.2475369 0.8955357 0.2437103 0.906046 0.9229668 0.2288226 0.9289924 0.2510464 0.9206289 0.2557844 0.806432 0.8990575 0.7879078 0.8805335 0.7879078 0.8543363 0.7879078 0.8543363 0.8064318 0.8358123 0.806432 0.8990575 0.8064318 0.8358123 0.832629 0.835812 0.806432 0.8990575 0.832629 0.835812 0.851153 0.8543363 0.806432 0.8990575 0.851153 0.8543363 0.8511531 0.8805333 0.806432 0.8990575 0.8935611 0.4259264 0.885616 0.3975783 0.9143514 0.3948172 0.8841523 0.3390069 0.9138373 0.3425911 0.9120138 0.3687246 0.8898037 0.09217184 0.9160414 0.08760756 0.9193113 0.1135999 0.890164 0.06273347 0.9155219 0.06141591 0.9160414 0.08760756 0.8912177 0.0333119 0.8928314 0.003915667 0.9193113 0.009179353 0.885616 0.3975783 0.8819597 0.3683657 0.9120138 0.3687246 0.8922268 0.3106954 0.9199876 0.3171262 0.9138373 0.3425911 0.5719007 0.7135258 0.5406298 0.7387275 0.5180447 0.7269117 0.8507173 0.1305995 0.8819723 0.1366584 0.8747036 0.1716176 0.8507173 0.1305995 0.8213494 0.1637836 0.788016 0.09972119 0.8320456 0.09471452 0.788016 0.09972119 0.8154968 0.04291081 0.8479248 0.06161099 0.8154968 0.04291081 0.876279 0.003915667 0.539947 0.8051039 0.5719007 0.8135047 0.5702056 0.8497663 0.539947 0.8051039 0.5098277 0.8376076 0.4932797 0.7902627 0.5305511 0.7784393 0.4932797 0.7902627 0.5180447 0.7269117 0.4233022 0.3323504 0.359306 0.3574888 0.4050372 0.01416844 0.4875352 0.3063572 0.4233022 0.3323504 0.4690939 0.03128588 0.5348735 0.2652347 0.4875352 0.3063572 0.514247 0.04383724 0.1727787 0.4451201 0.2656567 0.420829 0.2613887 0.6841083 0.1364986 0.7549252 0.1069094 0.4241224 0.1727787 0.4451201 0.04524928 0.4257872 0.1069094 0.4241224 0.1364986 0.7549252 0.003915667 0.4153935 0.04524928 0.4257872 0.06794124 0.8022314 0.359306 0.3574888 0.273488 0.3756749 0.3353835 0.003915607</float_array>
          <technique_common>
            <accessor source="#Cylinder_002-mesh-map-0-array" count="570" stride="2">
              <param name="S" type="float"/>
              <param name="T" type="float"/>
            </accessor>
          </technique_common>
        </source>
        <vertices id="Cylinder_002-mesh-vertices">
          <input semantic="POSITION" source="#Cylinder_002-mesh-positions"/>
        </vertices>
        <triangles material="Plastic_Bottles-material" count="190">
          <input semantic="VERTEX" source="#Cylinder_002-mesh-vertices" offset="0"/>
          <input semantic="NORMAL" source="#Cylinder_002-mesh-normals" offset="1"/>
          <input semantic="TEXCOORD" source="#Cylinder_002-mesh-map-0" offset="2" set="0"/>
          <p>1 0 0 90 1 1 89 2 2 90 1 3 3 3 4 91 4 5 3 3 6 92 5 7 91 4 8 92 5 9 5 6 10 93 7 11 5 8 12 94 9 13 93 10 14 6 11 15 95 12 16 94 13 17 8 14 18 15 15 19 16 16 20 7 17 21 96 18 22 95 12 23 8 19 24 89 2 25 96 20 26 16 16 27 17 21 28 9 22 29 2 23 30 11 24 31 3 3 32 6 25 33 13 26 34 14 27 35 8 28 36 9 22 37 1 0 38 2 23 39 9 22 40 10 29 41 3 3 42 12 30 43 4 31 44 7 32 45 14 27 46 15 15 47 4 31 48 13 26 49 5 6 50 19 33 51 28 34 52 20 35 53 14 27 54 23 36 55 15 15 56 12 30 57 21 37 58 13 26 59 10 29 60 19 38 61 11 24 62 15 15 63 24 39 64 16 16 65 13 26 66 22 40 67 14 27 68 11 24 69 20 41 70 12 30 71 9 22 72 18 42 73 10 29 74 32 43 75 39 44 76 40 45 77 18 46 78 25 47 79 26 48 80 17 49 81 32 50 82 25 47 83 23 51 84 30 52 85 31 53 86 20 35 87 29 54 88 21 55 89 19 33 90 26 48 91 27 56 92 23 51 93 32 50 94 24 57 95 22 58 96 29 54 97 30 52 98 37 59 99 44 60 100 45 61 101 29 62 102 38 63 103 30 64 104 27 65 105 36 66 106 28 67 107 25 68 108 34 69 109 26 70 110 32 43 111 33 71 112 25 68 113 30 64 114 39 44 115 31 72 116 28 67 117 37 73 118 29 62 119 26 70 120 35 74 121 27 65 122 41 75 123 56 76 124 49 77 125 35 78 126 42 79 127 43 80 128 39 81 129 48 82 130 40 83 131 38 84 132 45 61 133 46 85 134 36 86 135 43 80 136 44 60 137 34 87 138 41 88 139 42 79 140 33 89 141 48 82 142 41 88 143 39 81 144 46 85 145 47 90 146 53 91 147 62 92 148 54 93 149 46 94 150 55 95 151 47 96 152 44 97 153 53 98 154 45 99 155 43 100 156 50 101 157 51 102 158 48 103 159 55 95 160 56 76 161 45 99 162 54 104 163 46 94 164 44 97 165 51 102 166 52 105 167 42 106 168 49 77 169 50 101 170 63 107 171 72 108 172 64 109 173 52 110 174 59 111 175 60 112 176 50 113 177 57 114 178 58 115 179 49 116 180 64 117 181 57 114 182 54 93 183 63 118 184 55 119 185 52 110 186 61 120 187 53 91 188 51 121 189 58 115 190 59 111 191 56 122 192 63 118 193 64 117 194 69 123 195 68 124 196 67 125 197 62 126 198 69 127 199 70 128 200 59 129 201 68 130 202 60 131 203 57 132 204 66 133 205 58 134 206 64 109 207 65 135 208 57 132 209 63 107 210 70 128 211 71 136 212 61 137 213 68 130 214 69 127 215 58 134 216 67 138 217 59 129 218 82 139 219 73 140 220 74 141 221 83 142 222 74 141 223 75 143 224 83 142 225 76 144 226 84 145 227 84 145 228 77 146 229 85 147 230 85 147 231 78 148 232 86 149 233 87 150 234 78 148 235 79 151 236 87 150 237 80 152 238 88 153 239 88 153 240 73 140 241 81 154 242 0 155 243 81 156 244 82 157 245 0 155 246 82 157 247 83 158 248 0 155 249 83 158 250 84 159 251 0 155 252 84 159 253 85 160 254 0 155 255 85 160 256 86 161 257 0 155 258 86 161 259 87 162 260 0 155 261 87 162 262 88 163 263 0 155 264 88 163 265 81 156 266 96 20 267 73 164 268 80 165 269 95 12 270 80 166 271 79 167 272 94 13 273 79 167 274 78 168 275 93 10 276 78 169 277 77 170 278 76 171 279 93 7 280 77 172 281 91 4 282 76 171 283 75 173 284 90 1 285 75 173 286 74 174 287 89 2 288 74 174 289 73 164 290 1 0 291 2 23 292 90 1 293 90 1 294 2 23 295 3 3 296 3 3 297 4 31 298 92 5 299 92 5 300 4 31 301 5 6 302 5 8 303 6 25 304 94 9 305 6 11 306 7 32 307 95 12 308 8 14 309 7 175 310 15 15 311 7 17 312 8 176 313 96 18 314 8 19 315 1 177 316 89 2 317 16 16 318 24 39 319 17 21 320 2 23 321 10 29 322 11 24 323 6 25 324 5 8 325 13 26 326 8 28 327 16 16 328 9 22 329 2 23 330 1 0 331 9 22 332 3 3 333 11 24 334 12 30 335 7 32 336 6 11 337 14 27 338 4 31 339 12 30 340 13 26 341 19 33 342 27 56 343 28 34 344 14 27 345 22 40 346 23 36 347 12 30 348 20 41 349 21 37 350 10 29 351 18 42 352 19 38 353 15 15 354 23 36 355 24 39 356 13 26 357 21 37 358 22 40 359 11 24 360 19 38 361 20 41 362 9 22 363 17 21 364 18 42 365 32 43 366 31 72 367 39 44 368 18 46 369 17 49 370 25 47 371 17 49 372 24 57 373 32 50 374 23 51 375 22 58 376 30 52 377 20 35 378 28 34 379 29 54 380 19 33 381 18 46 382 26 48 383 23 51 384 31 53 385 32 50 386 22 58 387 21 55 388 29 54 389 37 59 390 36 86 391 44 60 392 29 62 393 37 73 394 38 63 395 27 65 396 35 74 397 36 66 398 25 68 399 33 71 400 34 69 401 32 43 402 40 45 403 33 71 404 30 64 405 38 63 406 39 44 407 28 67 408 36 66 409 37 73 410 26 70 411 34 69 412 35 74 413 41 75 414 48 103 415 56 76 416 35 78 417 34 87 418 42 79 419 39 81 420 47 90 421 48 82 422 38 84 423 37 59 424 45 61 425 36 86 426 35 78 427 43 80 428 34 87 429 33 89 430 41 88 431 33 89 432 40 83 433 48 82 434 39 81 435 38 84 436 46 85 437 53 91 438 61 120 439 62 92 440 46 94 441 54 104 442 55 95 443 44 97 444 52 105 445 53 98 446 43 100 447 42 106 448 50 101 449 48 103 450 47 96 451 55 95 452 45 99 453 53 98 454 54 104 455 44 97 456 43 100 457 51 102 458 42 106 459 41 75 460 49 77 461 63 107 462 71 136 463 72 108 464 52 110 465 51 121 466 59 111 467 50 113 468 49 116 469 57 114 470 49 116 471 56 122 472 64 117 473 54 93 474 62 92 475 63 118 476 52 110 477 60 112 478 61 120 479 51 121 480 50 113 481 58 115 482 56 122 483 55 119 484 63 118 485 67 125 486 66 178 487 65 179 488 65 179 489 72 180 490 67 125 491 72 180 492 71 181 493 67 125 494 71 181 495 70 182 496 67 125 497 70 182 498 69 123 499 67 125 500 62 126 501 61 137 502 69 127 503 59 129 504 67 138 505 68 130 506 57 132 507 65 135 508 66 133 509 64 109 510 72 108 511 65 135 512 63 107 513 62 126 514 70 128 515 61 137 516 60 131 517 68 130 518 58 134 519 66 133 520 67 138 521 82 139 522 81 154 523 73 140 524 83 142 525 82 139 526 74 141 527 83 142 528 75 143 529 76 144 530 84 145 531 76 144 532 77 146 533 85 147 534 77 146 535 78 148 536 87 150 537 86 149 538 78 148 539 87 150 540 79 151 541 80 152 542 88 153 543 80 152 544 73 140 545 96 20 546 89 2 547 73 164 548 95 12 549 96 18 550 80 166 551 94 13 552 95 12 553 79 167 554 93 10 555 94 9 556 78 169 557 76 171 558 92 5 559 93 7 560 91 4 561 92 5 562 76 171 563 90 1 564 91 4 565 75 173 566 89 2 567 90 1 568 74 174 569</p>
        </triangles>
      </mesh>
    </geometry>
  </library_geometries>
  <library_visual_scenes>
    <visual_scene id="Scene" name="Scene">
      <node id="Plastic_Bottle_03_GEO" name="Plastic_Bottle_03_GEO" type="NODE">
        <matrix sid="transform">1 0 0 0.01865804 0 1 0 0 0 0 1 0 0 0 0 1</matrix>
        <instance_geometry url="#Cylinder_002-mesh" name="Plastic_Bottle_03_GEO">
          <bind_material>
            <technique_common>
              <instance_material symbol="Plastic_Bottles-material" target="#Plastic_Bottles-material">
                <bind_vertex_input semantic="UVMap" input_semantic="TEXCOORD" input_set="0"/>
              </instance_material>
            </technique_common>
          </bind_material>
        </instance_geometry>
      </node>
    </visual_scene>
  </library_visual_scenes>
  <scene>
    <instance_visual_scene url="#Scene"/>
  </scene>
</COLLADA>