<?xml version="1.0" encoding="utf-8"?>
<COLLADA xmlns="http://www.collada.org/2005/11/COLLADASchema" version="1.4.1" xmlns:xsi="http://www.w3.org/2001/XMLSchema-instance">
  <asset>
    <contributor>
      <author>Blender User</author>
      <authoring_tool>Blender 4.2.10 LTS commit date:2025-05-19, commit time:14:56, hash:930497d46279</authoring_tool>
    </contributor>
    <created>2026-03-03T23:53:25</created>
    <modified>2026-03-03T23:53:25</modified>
    <unit name="meter" meter="1"/>
    <up_axis>Z_UP</up_axis>
  </asset>
  <library_effects>
    <effect id="Egg_Carton-effect">
      <profile_COMMON>
        <newparam sid="Egg_Carton_Egg_Carton_AlbedoTransparency_png-surface">
          <surface type="2D">
            <init_from>Egg_Carton_Egg_Carton_AlbedoTransparency_png</init_from>
          </surface>
        </newparam>
        <newparam sid="Egg_Carton_Egg_Carton_AlbedoTransparency_png-sampler">
          <sampler2D>
            <source>Egg_Carton_Egg_Carton_AlbedoTransparency_png-surface</source>
          </sampler2D>
        </newparam>
        <technique sid="common">
          <lambert>
            <emission>
              <color sid="emission">0 0 0 1</color>
            </emission>
            <diffuse>
              <texture texture="Egg_Carton_Egg_Carton_AlbedoTransparency_png-sampler" texcoord="UVMap"/>
            </diffuse>
            <index_of_refraction>
              <float sid="ior">1.45</float>
            </index_of_refraction>
          </lambert>
        </technique>
      </profile_COMMON>
    </effect>
  </library_effects>
  <library_images>
    <image id="Egg_Carton_Egg_Carton_AlbedoTransparency_png" name="Egg_Carton_Egg_Carton_AlbedoTransparency_png">
      <init_from>Egg_Carton_Egg_Carton_AlbedoTransparency.png</init_from>
    </image>
  </library_images>
  <library_materials>
    <material id="Egg_Carton-material" name="Egg_Carton">
      <instance_effect url="#Egg_Carton-effect"/>
    </material>
  </library_materials>
  <library_geometries>
    <geometry id="Cube_002-mesh" name="Cube.002">
      <mesh>
        <source id="Cube_002-mesh-positions">
          <float_array id="Cube_002-mesh-positions-array" count="582">4.61042e-5 -0.04057174 0.01205551 -0.0429874 -0.04057174 0.02474969 -0.08798742 -0.04637497 0.03528136 -0.1042754 -0.04510957 0.01656353 -0.07351547 -0.0469079 0.005060136 -0.05672514 -0.0469079 0.005060136 -0.0301271 -0.04065936 0.001686811 -0.01415067 -0.04045671 -2.07851e-4 -0.034644 -0.04057174 0.03415 -0.0513308 -0.04057174 0.03415 -0.03839987 -0.04286175 0.03885823 -0.05490064 -0.04286175 0.03885823 -0.03534156 -0.03826034 0.05053687 -0.0568844 -0.03860181 0.05606877 -0.03335332 -0.03814691 0.06245279 -0.05439561 -0.03848046 0.06563341 -0.1197658 -0.01118201 0.0210275 -0.1042175 -0.01102852 0.01781201 -0.07351547 -0.01278638 0.005060136 -0.05672514 -0.01117408 -9.05987e-5 -0.03028076 -0.01127159 0.002427697 -0.01430433 -0.01106899 -1.55315e-4 4.61042e-5 -0.01117408 0.0139234 -0.0429874 -0.01117408 0.0139234 -0.08958369 -0.01168859 0.02724599 -0.1287684 -0.01323682 0.05333369 -0.1306961 -0.01425498 0.05789166 -0.1275991 -0.01303595 0.0609939 -0.1190947 -0.01368141 0.0705319 -0.1248618 -0.0130558 0.05031979 -0.1140553 -0.006487369 0.07346451 -0.1261402 0.00116533 0.04368799 -0.1230433 0.00200051 0.03058725 -0.1066628 0.002162277 0.02719962 -0.06515026 9.85756e-4 0.01329296 -0.02238065 6.91451e-4 0.009326577 4.61042e-5 6.91451e-4 0.02334064 -0.04301732 6.91451e-4 0.02334064 -0.08815091 0.001540422 0.03583157 -0.1171659 -0.04623544 0.03469371 -0.1167418 -0.04523265 0.01914167 -0.118062 -0.04721164 0.04985904 -0.120113 -0.05015701 0.05437129 -0.1174722 -0.04517191 0.05770736 -0.1069603 -0.02358055 0.07862567 -0.1075502 -0.009169518 0.07607561 -0.116684 -0.01115161 0.02039015 -0.1082645 -0.006430149 0.07226693 -0.02980589 -0.03837859 0.04300832 -0.06071281 -0.03837859 0.04300832 -0.02843713 -0.03445434 0.06513428 -0.05803817 -0.03492349 0.06759697 -0.03718233 -0.03463369 0.05213248 -0.05471068 -0.03491151 0.05663359 -0.03613632 -0.03457379 0.0584383 -0.0532574 -0.03484511 0.06283473 -0.03718614 -0.03875988 0.0518549 -0.05471456 -0.0390377 0.05635595 -0.03624159 -0.04187822 0.05736392 -0.05336266 -0.04214954 0.06176036 -0.03723424 -0.04022759 0.05147957 -0.0547626 -0.0405054 0.05598062 -0.036619 -0.04562968 0.05489605 -0.05374008 -0.04590106 0.05929249 0.04307961 -0.04057174 0.02474969 0.09021329 -0.04057174 0.02255058 0.1094875 -0.04057174 0.005286872 0.07360768 -0.04057174 -9.05987e-5 0.05681735 -0.04057174 -9.05987e-5 0.03052335 -0.04057174 -9.05987e-5 0.01436245 -0.04057174 -9.05987e-5 0.03473621 -0.04057174 0.03415 0.05142301 -0.04057174 0.03415 0.03849214 -0.04286175 0.03885823 0.05499285 -0.04286175 0.03885823 0.03502964 -0.03888708 0.05077511 0.05679327 -0.03760647 0.05458784 0.03367477 -0.0391668 0.06282281 0.05493265 -0.03791594 0.06654691 0.1241938 -0.01117408 0.01251858 0.1094875 -0.01117408 0.005286872 0.07360768 -0.01117408 -9.05987e-5 0.05681735 -0.01117408 -9.05987e-5 0.03052335 -0.01117408 -9.05987e-5 0.01436245 -0.01117408 -9.05987e-5 0.04307961 -0.01117408 0.0139234 0.09346371 -0.01117408 0.01249402 0.1273771 -0.01117408 0.05094522 0.1284661 -0.01180267 0.05654937 0.1248929 -0.01057201 0.05926001 0.1148704 -0.01057201 0.06800943 0.1240683 -0.01117408 0.04664725 0.1094674 -0.0042032 0.06983447 0.1265965 6.91451e-4 0.03892475 0.1258496 6.91451e-4 0.02347075 0.110356 6.91451e-4 0.01585197 0.06524246 6.91451e-4 0.009326577 0.02247285 6.91451e-4 0.009326577 0.04310953 6.91451e-4 0.02334064 0.09066414 6.91451e-4 0.02125537 0.1189717 -0.04057174 0.02867448 0.1212789 -0.04057174 0.01108515 0.1171956 -0.04057174 0.04593861 0.1183981 -0.04286175 0.05159854 0.1152625 -0.03837859 0.05452436 0.09911823 -0.03479033 0.08221453 0.1003711 -0.01057201 0.07833802 0.1212789 -0.01117408 0.01108515 0.1039901 -0.0042032 0.06714111 0.0298981 -0.03837859 0.04300832 0.06080502 -0.03837859 0.04300832 0.02873039 -0.03592991 0.06597328 0.05863475 -0.03417032 0.07121217 0.03675997 -0.03515225 0.05230808 0.05446791 -0.0341103 0.05541032 0.03604912 -0.03529989 0.05868303 0.05334562 -0.03428214 0.06171315 0.03696215 -0.03926312 0.05193281 0.05467009 -0.03822118 0.05503505 0.03647422 -0.04255795 0.05742943 0.05377072 -0.0415402 0.06045955 0.03706592 -0.04071623 0.05151975 0.05477386 -0.03967428 0.05462193 0.03691309 -0.04622215 0.05484849 0.05420958 -0.04520434 0.05787861 4.61042e-5 0.04047042 0.01205551 -0.0429874 0.04047042 0.02474969 -0.08782786 0.04757827 0.03872323 -0.1041159 0.04884362 0.02000534 -0.07351547 0.04715669 0.005060136 -0.05672514 0.04047042 -9.05987e-5 -0.03055071 0.04035538 0.003729164 -0.01457428 0.04055804 7.33212e-4 -0.119722 0.01460897 0.02197235 -0.1041737 0.01476252 0.01875686 -0.07351547 0.01303517 0.005060136 -0.05672514 0.01107275 -9.05987e-5 -0.03039705 0.01096767 0.002988338 -0.01442062 0.01117032 -7.65135e-6 4.61042e-5 0.01107275 0.0139234 -0.0429874 0.01107275 0.0139234 -0.08953988 0.01410245 0.02819079 -0.1287246 0.01255422 0.05427849 -0.1306498 0.01299363 0.05888986 -0.1275577 0.01135921 0.06188762 -0.1190533 0.01071369 0.07142561 -0.124818 0.01273524 0.05126458 -0.1170064 0.04771775 0.03813558 -0.1165823 0.04872053 0.02258348 -0.1176932 0.04815149 0.05352258 -0.1198608 0.04895484 0.05845654 -0.1176143 0.04243731 0.06029236 -0.1068376 0.01318699 0.0812717 -0.1075088 0.003248631 0.07696932 -0.1166402 0.01463943 0.021335 0.04307961 0.04047042 0.02474969 0.09021329 0.04047042 0.02255058 0.1094875 0.04047042 0.005286872 0.07360768 0.04047042 -9.05987e-5 0.05681735 0.04047042 -9.05987e-5 0.03052335 0.04047042 -9.05987e-5 0.01436245 0.04047042 -9.05987e-5 0.1241938 0.01107275 0.01251858 0.1094875 0.01107275 0.005286872 0.07360768 0.01107275 -9.05987e-5 0.05681735 0.01107275 -9.05987e-5 0.03052335 0.01107275 -9.05987e-5 0.01436245 0.01107275 -9.05987e-5 0.04307961 0.01107275 0.0139234 0.09346371 0.01107275 0.01249402 0.1273771 0.01107275 0.05094522 0.1284661 0.0117014 0.05654937 0.1248929 0.01047068 0.05926001 0.1148704 0.01047074 0.06800943 0.1240683 0.01107275 0.04664725 0.1189717 0.04047042 0.02867448 0.1212789 0.04047042 0.01108515 0.1171957 0.04047042 0.04593861 0.1183981 0.04276043 0.05159854 0.1152625 0.03827726 0.05452436 0.09911823 0.0275126 0.08221453 0.1003711 0.01047074 0.07833802 0.1212789 0.01107275 0.01108515 4.61042e-5 -0.04057174 0.02145582 4.61042e-5 -0.04286175 0.02616405 4.61042e-5 -0.03837859 0.03031414 4.61042e-5 -0.03479033 0.06340998 4.61042e-5 -0.01057201 0.05923676 4.61042e-5 -0.0042032 0.04718285 4.61042e-5 0.01047074 0.05923676 4.61042e-5 0.04047042 0.02145582 4.61042e-5 0.04276043 0.02616405 4.61042e-5 0.03827726 0.03031414 4.61042e-5 0.0275126 0.06340998</float_array>
          <technique_common>
            <accessor source="#Cube_002-mesh-positions-array" count="194" stride="3">
              <param name="X" type="float"/>
              <param name="Y" type="float"/>
              <param name="Z" type="float"/>
            </accessor>
          </technique_common>
        </source>
        <source id="Cube_002-mesh-normals">
          <float_array id="Cube_002-mesh-normals-array" count="813">-0.6947212 -0.7124003 -0.09923785 -0.8591383 -0.09391081 -0.5030529 -0.6484969 -0.7548289 -0.09841328 -0.1958168 0.3039621 -0.9323427 -0.5937151 -0.5818506 -0.5558348 -0.67172 0.1647222 -0.7222596 0.001596629 -0.8825926 -0.4701362 0.2963505 0.3581301 -0.8853922 0.592619 0.3942747 -0.702389 -0.5460095 0.2853075 -0.7877013 0.324539 -0.7586712 -0.5648828 -0.3599953 -0.6724377 -0.6467077 -0.4223228 0.3232196 -0.8468604 0.2286044 -0.6129462 -0.7563313 -0.3898925 -0.6360128 -0.6659367 0.07064145 -0.9782739 -0.1949105 0.6322789 0.3321604 -0.6999235 0.2382263 0.331858 -0.9127533 0 -1 0 0.1197437 -0.9861847 0.1144608 0 -0.9992202 0.03948533 -0.1295172 -0.8495454 -0.5113687 0 -0.8992733 -0.4373871 -0.9650483 -0.1733186 0.196577 -0.4768285 -0.6256974 -0.6173632 -0.5209339 -0.8365091 0.1699432 0.1921687 -0.5267328 0.8280242 0.03021794 -0.9855257 0.1668109 -0.004078924 -0.8980458 -0.4398831 0.006160676 -0.9807021 0.195411 0.9098721 -0.1915118 0.3680436 0.1551309 -0.4656222 0.871281 0.531926 -0.8019869 0.2717936 -0.2028097 -0.4711275 0.858433 -0.01555126 -0.6096616 0.7925093 0.05214256 -0.9924116 0.1113572 0 -0.994174 0.1077877 -0.1575286 -0.2976252 0.9415965 -0.734666 -0.1581932 0.6597278 -0.1598634 -0.6456264 0.7467331 -0.669795 -0.1272501 -0.7315614 -0.6564085 0.753679 -0.03310662 -0.5899873 0.6385005 -0.4941985 0.7637394 -0.5020275 0.4057962 0.444778 -0.6346387 -0.631986 0.3808087 -0.663981 -0.643517 -0.3553253 -0.3883483 -0.8502526 0.3760493 0.6262605 -0.6829236 0.3904476 -0.3801909 -0.8384543 -0.01034778 0.5865186 0.8098697 0.07578688 0.7158999 0.6940776 -0.001238584 0.8841706 0.4671626 -0.9616662 0.1639409 0.2198215 -0.1236931 0.2412881 0.9625383 -0.5230991 0.7510978 0.4027652 -0.9075748 -0.1034343 -0.4069512 -0.9089379 0.1362026 -0.3940569 -0.8625684 0.1378766 -0.4867913 -0.9959344 0.01519018 -0.08879137 -0.6108666 0.09359121 -0.7861825 -0.8386749 0.143741 -0.5253219 -0.1789702 0.7239401 -0.6662435 0.3417614 0.5847595 -0.7357007 -0.3134979 -0.02856701 0.9491592 -0.6440431 0.2616456 0.7188533 -0.651885 -0.1531021 0.7427016 0.5431192 0.2665352 -0.796229 0.2148935 -0.5902847 -0.7780648 0.1822871 0.3119738 -0.9324398 -0.6627466 0.2953403 -0.6881433 -0.7649376 0.2722163 -0.5837539 0.05959147 -0.9896064 -0.1308751 -0.4153919 0.2903422 -0.862062 -0.06508201 -0.623503 -0.7791075 0.03958326 -0.9527959 -0.3010204 0.1179883 0.5654306 -0.8163131 0.3854224 0.4726013 -0.7925263 -0.0396983 0.6852039 -0.7272688 0.4396239 0.5583665 -0.7035323 -0.03837192 -0.3740181 0.9266273 0.01337009 -0.4530221 0.8913991 0.02072554 -0.6346134 0.772552 0.9465808 0.1330727 -0.2937289 0.9549465 -0.1123 -0.2747106 0.7994787 -0.2076991 -0.5636444 -0.372559 -0.383581 -0.845024 0.2615943 -0.3675493 -0.8924551 -0.07423561 -0.7595298 -0.6462225 0.5764312 -0.4271138 -0.6966356 -0.03955578 -0.7213512 -0.691439 0.2778347 -0.364318 -0.8888647 -0.4101775 -0.3247482 -0.8522283 -0.06508255 0.623503 -0.7791074 0.01084589 -0.3536275 -0.9353235 0.5305962 -0.2381254 -0.8134888 0.1089932 -0.5439754 -0.8319923 0.1774019 -0.2591639 -0.9494012 -0.4238048 -0.3350582 -0.841502 0.2273938 -0.426028 -0.8756667 -0.1998487 -0.7710044 -0.6046591 -0.5756769 -0.3447798 -0.7414332 0.3760493 -0.6262606 -0.6829237 -0.3596934 0.3619964 -0.859988 0.3948627 0.3540742 -0.8477706 -0.7943347 -0.2417077 -0.5573238 -0.1933571 -0.2558375 -0.9471854 -0.8565285 -0.09376823 -0.5075101 0.6162695 0.04366898 0.7863237 0.6489234 -0.1622948 0.743343 0.6489236 0.1622954 0.7433427 0.05979007 0.9884251 -0.1394312 -0.6885815 0.7212294 -0.07539176 -0.6648353 -0.3492057 -0.6603404 -0.4242815 -0.6090766 -0.6700829 -0.05848371 0.4435041 0.8943622 -0.6451805 -0.3174974 -0.694937 0.628103 -0.3962634 -0.669673 -0.06736648 -0.9810754 0.1815292 -0.1246694 -0.5842071 0.8019723 -0.006160676 -0.9807021 0.195411 0.01846981 -0.9892793 0.1448636 0.132455 -0.9890225 0.06550067 0.4010695 -0.8159824 0.4163125 -0.1058468 -0.5720195 0.813382 -0.231137 -0.6408259 0.7320641 -0.4447724 -0.8881868 0.1153331 0.1670585 -0.5159485 0.8401718 0.8092715 -0.09682452 0.5794004 0.5720491 0.1207318 -0.8112852 0.5668206 0.05477452 -0.8220184 -0.3791341 -0.5270656 0.7605651 0.6967284 -0.4905166 0.5234148 -0.4820287 -0.546421 0.6848887 -0.6317989 -0.7354421 -0.2448574 -0.4538193 -0.798304 -0.395928 0.7948911 -0.2550148 0.5505596 -0.51578 -0.8478205 0.1231722 0.5513054 -0.8229371 -0.1372475 -0.4732415 -0.2882844 0.832427 -0.4730811 -0.1202039 0.8727803 -0.8718945 0.09086769 -0.4811891 -0.8674077 0.0342139 -0.4964206 -0.7902667 -0.1401231 -0.5965268 0.4581567 -0.1181908 -0.8809787 0.9460245 -0.1302874 -0.296754 0.6597029 -0.7512204 0.02144819 0.6390855 -0.7674551 0.05081832 -0.1237726 -0.3321574 0.9350678 0.6790599 -0.6192543 -0.3942103 0.4178853 0.3212554 -0.8498041 0.8052446 0.1797285 -0.5650478 -0.5914383 0.3941205 -0.7034698 0.2881625 -0.6488963 -0.7041988 -0.376867 0.3572937 -0.8545832 0.2642753 0.3389632 -0.9029189 -0.2655784 -0.6371433 -0.7235444 0.003126919 -0.9801151 -0.1984055 -0.3598776 -0.6297615 -0.6883957 -0.6737233 0.3149574 -0.6685049 0.5632874 -0.7187495 -0.4075614 0.02395361 -0.8917516 -0.4518909 0.1295173 -0.849545 -0.5113694 0.1460635 -0.7928608 0.5916396 0 -0.679322 0.7338404 0.504139 -0.7373245 0.4496625 0.5982735 -0.03334164 0.800598 0.2129926 -0.5292534 0.8212947 0.6390854 0.7674553 0.05081838 0.6790605 0.6192538 -0.3942101 -0.4671795 -0.770922 -0.4329233 -0.6854764 -0.5716955 0.4508729 -0.2557401 -0.8112055 -0.5258733 0.1541238 0.4671136 0.8706611 0.9098768 0.1915057 0.3680352 0.532159 0.8014675 0.272868 0.9680474 0.145267 -0.2044061 0.9680472 -0.1452688 -0.2044059 0.9978415 0.01387172 0.06418687 0.7901917 0.07449132 -0.6083158 0.9470645 0.11845 -0.2983933 -0.07956135 0.7153738 -0.6941977 -0.1723324 -0.1188605 0.9778414 0.698965 0.3148967 -0.6420966 0.5923721 0.2576186 -0.7633663 0.06005066 0.6378427 -0.767822 0.01100605 0.3271777 -0.9448988 0.01787126 0.720256 -0.6934782 0.377029 0.6482011 -0.6615774 -0.5802385 -0.4288481 -0.6923963 0.01679933 -0.7655812 -0.6431199 -0.4200208 -0.609739 -0.6721615 0.05682533 -0.6887882 -0.7227321 -0.212455 -0.5961441 -0.7742577 0.3577102 -0.694927 -0.6237948 0.4130213 -0.3520783 -0.8399133 0.16116 0.5016615 0.8499196 0.6894689 -0.3491762 -0.6345934 0.02024608 -0.9948356 0.09946101 -0.06527942 -0.5723702 0.8173929 -0.6697493 0.0858125 0.7376125 -0.1442521 -0.9893844 0.01760852 0.2307559 -0.9643209 0.1297569 0.3177925 -0.8463851 0.4273642 -0.224438 -0.586035 0.7785825 -0.3602518 -0.8722425 0.3307744 -0.6319623 0.1061366 -0.767697 -0.7568451 -0.1539792 0.6351976 -0.6151726 0.04160714 -0.7872938 0.4606509 -0.511224 0.7255693 0.5694471 -0.5241426 0.6332494 0.6679893 -0.6948906 -0.2663033 0.5020371 -0.7566553 -0.4188454 -0.7384167 -0.3148078 0.5963529 0.5766881 -0.8143168 0.06572037 0.5452176 -0.2755213 0.7917233 0.5458987 -0.1101494 0.8305792 0.8308684 0.1481702 -0.5363798 0.8328178 0.09080564 -0.5460484 -0.5064468 -0.1292958 -0.8525223 0.7561389 -0.08087402 -0.6493947 -0.007863342 0.8784105 -0.4778425 0.3388866 0.4822319 -0.8078418 -0.4044856 0.6520313 -0.6412852 0.1779346 0.643431 -0.7445374 -0.3737707 0.7087262 -0.5983332 0.03610289 0.8711741 -0.4896451 -0.4309927 0.839996 -0.3296242 0.5671034 0.140861 0.8115122 -0.7178743 0.1301679 0.6838954 -0.2133169 0.07138568 0.9743717 -0.2255836 0.5773043 0.7847496 0.2195647 0.6650917 -0.7137537 0.214879 0.4251562 0.8792435 0.02466744 0.9500425 0.3111443 0.01464533 0.5177294 0.8554191 0.02582103 0.994472 0.1017789 0.5623373 0.7203921 -0.4059705 0.01768428 0.8991333 -0.4373174 0.6654086 0.7461658 0.02163255 0.2881624 0.6488964 -0.7041987 -0.2655784 0.6371433 -0.7235444 0.003126919 0.9801146 -0.1984079 -0.3598777 0.6297615 -0.6883956 0.02761977 0.6790639 0.7335595 0.4004126 0.725385 0.5598986 0.587945 -0.291284 -0.7546353 0.03958326 0.9527959 -0.3010205 0.1901275 -0.3821665 0.9043231 -0.1460634 -0.7928607 0.5916396 -0.06883358 -0.9960584 0.05594408 0.1812701 -0.4516619 0.8735804 0.1039403 0.8192678 0.563912 7.26218e-4 0.999841 -0.01781892 -0.6095025 -0.03381115 -0.7920629 0.567104 -0.1408562 0.8115125 -0.6744885 -0.1340556 0.7260127 -0.6092129 0.4770823 -0.6334446 -0.4699194 0.5480204 -0.6919895 0.4200209 -0.609739 -0.6721615 0.3638876 -0.4543409 -0.8131176 -0.6293588 -0.4534524 -0.6311011 -0.4496858 -0.5994011 -0.6621941 0.3108769 -0.639078 -0.7035161 0.7901922 -0.07449007 -0.6083155 -0.6285876 -0.5479235 0.551958 -0.4440374 0.5577022 -0.7012839 -0.2219039 0.5447716 -0.808692 -0.4396238 0.5583666 -0.7035323 0.4699192 0.5480203 -0.6919897 0.4496856 -0.5994011 -0.6621943 -0.5070441 -0.8541215 -0.1156844</float_array>
          <technique_common>
            <accessor source="#Cube_002-mesh-normals-array" count="271" stride="3">
              <param name="X" type="float"/>
              <param name="Y" type="float"/>
              <param name="Z" type="float"/>
            </accessor>
          </technique_common>
        </source>
        <source id="Cube_002-mesh-map-0">
          <float_array id="Cube_002-mesh-map-0-array" count="2304">0.3155491 0.5748552 0.3947485 0.5746508 0.3169612 0.6094429 0.3957391 0.6495254 0.3183284 0.6448676 0.3961411 0.6423802 0.8184263 0.7286865 0.8615159 0.7956185 0.8158012 0.7956185 0.2516416 0.7617023 0.289822 0.8392928 0.2516416 0.8392928 0.6397255 0.8826614 0.6031389 0.8159751 0.6397255 0.8158131 0.4633268 0.007915973 0.427662 0.07109534 0.4300303 0.03458505 0.4739124 0.10939 0.416226 0.1702464 0.4224283 0.1325732 0.06191581 0.7051844 0.007915973 0.7763797 0.01847678 0.6949651 0.4739124 0.10939 0.4983825 0.09462201 0.4914808 0.1319339 0.6690658 0.5859457 0.6727847 0.5049169 0.6806845 0.5885438 0.4286717 0.6462351 0.416226 0.5648694 0.4286717 0.560747 0.6257523 0.4427064 0.647086 0.3042342 0.638186 0.4573032 0.6806845 0.4678034 0.6629181 0.4940847 0.6707298 0.4573851 0.1567009 0.9073241 0.145375 0.8406426 0.1567009 0.8322309 0.3884921 0.3769871 0.3996804 0.3013445 0.3996804 0.3868325 0.2480813 0.6626525 0.1968882 0.7275064 0.1725329 0.6578787 0.7425052 0.7615942 0.7999693 0.7286865 0.7999692 0.805668 0.2559243 0.5631482 0.1770728 0.5921253 0.1782839 0.5566949 0.6285012 0.2869043 0.6192106 0.2698341 0.6285012 0.2644288 0.7792541 0.8215 0.7425052 0.8883488 0.7425052 0.8215 0.6190247 0.2434282 0.6495916 0.007915973 0.6495916 0.2485968 0.3884921 0.404393 0.3988233 0.4769522 0.3888832 0.4897727 0.9610735 0.29848 0.9723973 0.358542 0.9610735 0.357167 0.5383818 0.6913717 0.5640712 0.6753197 0.5944468 0.6913716 0.5944468 0.6913716 0.5385496 0.7020961 0.5383818 0.6913717 0.5944468 0.6913716 0.562947 0.6418756 0.5981229 0.6254041 0.8509078 0.5752785 0.8137309 0.6191462 0.8183382 0.5640621 0.3155491 0.8846743 0.3284897 0.8457753 0.3284897 0.9012858 0.5474746 0.7972064 0.5870896 0.720314 0.5870896 0.7978646 0.4658221 0.7716569 0.5047733 0.8395367 0.444727 0.8396997 0.329205 0.6653574 0.3917531 0.7452437 0.315549 0.7452437 0.0478692 0.8606991 0.007916033 0.7938503 0.0667321 0.7922116 0.5973454 0.6188809 0.562947 0.6418756 0.5634198 0.6029774 0.818373 0.9337419 0.8528835 0.8975566 0.8528835 0.9440246 0.9117075 0.5782903 0.8749261 0.6239534 0.8803365 0.5640621 0.7762009 0.9495438 0.7425053 0.9277961 0.7762009 0.9041807 0.9618948 0.8385018 0.9618948 0.875306 0.9292382 0.8597363 0.8208714 0.4862993 0.8548744 0.547684 0.8137309 0.5482302 0.01136523 0.8886178 0.04362195 0.9332553 0.007915973 0.9274297 0.459098 0.5449151 0.416226 0.3094028 0.459098 0.3042342 0.7171003 0.7012564 0.6951644 0.6443203 0.7238163 0.6232714 0.2110351 0.9209601 0.2110351 0.9591404 0.1791628 0.9401183 0.8849887 0.2237001 0.9194345 0.2693153 0.8827472 0.2693153 0.8325938 0.3727216 0.872547 0.3058729 0.872547 0.3727216 0.6681774 0.9086546 0.6998837 0.9440529 0.665175 0.9481613 0.2810022 0.9631988 0.2516417 0.9412007 0.2810022 0.9262331 0.9581417 0.891138 0.9581417 0.9337921 0.925264 0.9142441 0.09217119 0.8322309 0.1289201 0.8990796 0.09217119 0.8990796 0.8370478 0.1824098 0.8694142 0.1186479 0.8752979 0.1824098 0.5315575 0.618205 0.562947 0.6418756 0.5306446 0.6247197 0.9598241 0.7601003 0.984941 0.7357958 0.984941 0.7744944 0.1363827 0.59397 0.1061297 0.6418202 0.1061297 0.59397 0.2847095 0.08221977 0.2663028 0.01845878 0.2997171 0.007915973 0.4519196 0.903703 0.4816841 0.8555317 0.4816841 0.9151012 0.9437174 0.135635 0.9738256 0.1091716 0.9738256 0.1424774 0.6456792 0.6805281 0.6167304 0.6030906 0.6456792 0.6029774 0.9094319 0.8911379 0.8799402 0.9357755 0.8771889 0.8979541 0.2636213 0.8641999 0.2941744 0.9104011 0.2516417 0.9071867 0.9677737 0.425787 0.9397782 0.4184179 0.9677737 0.3885537 0.3995796 0.5364806 0.3884921 0.5235063 0.3995796 0.5056046 0.5463395 0.3083414 0.6025709 0.4331997 0.5306446 0.4416382 0.2820211 0.4517768 0.2883535 0.3995536 0.2938337 0.4366729 0.6707298 0.4573851 0.6744117 0.3113087 0.6806845 0.4678034 0.4292187 0.244194 0.4647235 0.2803167 0.430008 0.2731323 0.9009621 0.3601338 0.9180836 0.302441 0.9180836 0.3727216 0.7158685 0.825572 0.7266733 0.8823578 0.717556 0.8739412 0.5771536 0.3054178 0.6025709 0.316281 0.5463395 0.3083414 0.2129845 0.7413812 0.2480813 0.727545 0.2404493 0.7407515 0.497516 0.982658 0.51147 0.971446 0.5119373 0.9808384 0.2358097 0.8412728 0.227128 0.8870258 0.227128 0.8458693 0.9869393 0.06469672 0.9774515 0.08219963 0.9774582 0.06766408 0.9868848 0.9395365 0.9739737 0.895903 0.9868848 0.891138 0.9455042 0.2099062 0.9352664 0.249673 0.9352664 0.2094727 0.9622941 0.210027 0.9455042 0.2501065 0.9455042 0.2099062 0.8158013 0.9598566 0.8297048 0.9710641 0.8163081 0.9766392 0.9909762 0.2506294 0.9815723 0.2094772 0.9909762 0.2094728 0.9398457 0.949624 0.925264 0.9900148 0.925264 0.9498146 0.8163081 0.9766392 0.8301711 0.974479 0.8209486 0.9857752 0.9815722 0.2506338 0.9781261 0.2095323 0.9815723 0.2094772 0.4980239 0.9658755 0.5119373 0.9680313 0.51147 0.971446 0.5133454 0.6545432 0.4447271 0.6518764 0.4462576 0.6124412 0.9616195 0.04891109 0.9388992 0.03281587 0.9616195 0.007915973 0.44773 0.5721282 0.5145297 0.5695688 0.5148126 0.5769498 0.8669152 0.2095465 0.8242225 0.2763952 0.8213595 0.2094728 0.5306446 0.8136966 0.568825 0.8805454 0.5306446 0.8805454 0.02178132 0.2178335 0.05893111 0.2825307 0.02698218 0.2542125 0.007915973 0.1208481 0.07365751 0.1815745 0.01331943 0.1586441 0.1367961 0.8163989 0.09217125 0.7495502 0.1567009 0.7479984 0.07365751 0.1815745 0.09213304 0.1597679 0.09750312 0.1973308 0.414683 0.7350412 0.4286717 0.6620823 0.4286717 0.7371755 0.2973551 0.583693 0.2820211 0.4517768 0.2938337 0.4366729 0.123116 0.420956 0.1061296 0.3941642 0.1163102 0.3836266 0.6184028 0.5126017 0.647086 0.5857881 0.6332251 0.5848615 0.5125035 0.7558249 0.4489298 0.725865 0.5079999 0.6826216 0.009446442 0.6362608 0.07800143 0.6717522 0.01091885 0.6765736 0.9739737 0.9723848 0.9835431 0.9553684 0.9835431 0.9828988 0.9339156 0.36431 0.9452415 0.2976284 0.9452415 0.3727216 0.1453749 0.9256757 0.1583567 0.9776934 0.1453749 0.9762639 0.7171003 0.7012564 0.6695308 0.7012564 0.6949011 0.6835688 0.7171003 0.7128545 0.6695308 0.7012564 0.7171003 0.7012564 0.6951644 0.6443203 0.6695308 0.7012564 0.662918 0.6243377 0.8774071 0.485844 0.9099135 0.5340152 0.8707064 0.529963 0.1363827 0.6418202 0.1363827 0.59397 0.1493509 0.6273378 0.3155491 0.4327188 0.3171953 0.3651865 0.3726602 0.3000112 0.3788259 0.7624544 0.3360386 0.8293032 0.3155491 0.7610756 0.8034036 0.6460057 0.7499472 0.7128545 0.7396484 0.6425675 0.6638379 0.6177794 0.6951644 0.6443203 0.662918 0.6243377 0.5343362 0.9077884 0.5665114 0.9428109 0.5306445 0.9475707 0.3755092 0.8594958 0.4124832 0.9050031 0.3734101 0.9050031 0.3499957 0.9552981 0.315549 0.9361399 0.3499957 0.9171178 0.4058079 0.920835 0.4058079 0.9599081 0.3734101 0.9381805 0.1725329 0.8493967 0.2110351 0.9051282 0.1769852 0.9026672 0.9239463 0.3885536 0.8916895 0.4331912 0.8850096 0.3909285 0.3169612 0.6094429 0.3961411 0.6423802 0.3183284 0.6448676 0.911944 0.7501173 0.877348 0.7956185 0.8834705 0.7357959 0.6069254 0.9383862 0.6363279 0.9033638 0.6363279 0.9497973 0.9615189 0.6008855 0.9297112 0.5824803 0.9615189 0.5640621 0.8771889 0.8671821 0.9134061 0.8114506 0.9134061 0.875306 0.7225953 0.6167411 0.6951644 0.6443203 0.6941176 0.6043757 0.971515 0.192049 0.9437174 0.1810908 0.971515 0.1583094 0.8807377 0.6892791 0.9113429 0.6425674 0.9113429 0.7157745 0.9230672 0.07476472 0.8931877 0.007915973 0.9230673 0.007915973 0.8954754 0.1232029 0.9278854 0.1657689 0.8911299 0.1657689 0.4447271 0.9554969 0.4712921 0.9309331 0.4712921 0.9691749 0.9895473 0.5149264 0.9679937 0.4959208 0.9895473 0.4744457 0.5339586 0.5839988 0.6008982 0.4785277 0.5982006 0.5738963 0.7257578 0.9601935 0.7158685 0.9016426 0.7257578 0.8981899 0.1128596 0.4310774 0.1266639 0.5728614 0.1135338 0.578138 0.00847423 0.03834998 0.05806893 0.009473979 0.05353868 0.07618147 0.9344626 0.4861146 0.9521617 0.5447263 0.9257454 0.5356811 0.05945402 0.8871297 0.07143837 0.9456835 0.05945402 0.9362875 0.5617026 0.5871455 0.5982006 0.5738963 0.5892331 0.5871455 0.7408541 0.1217317 0.7046813 0.1100567 0.7322428 0.1091716 0.7536593 0.6120255 0.7396484 0.6008525 0.7541286 0.6026392 0.2357968 0.9580145 0.227128 0.9126483 0.2357968 0.9076873 0.1520822 0.5759076 0.1424959 0.5584899 0.1520822 0.5483319 0.9819395 0.6917253 0.9686175 0.6475315 0.9819395 0.6425674 0.2885256 0.6000367 0.2987533 0.6395224 0.2885257 0.6400341 0.2717564 0.6005324 0.2885257 0.6400341 0.2717564 0.6405297 0.9598242 0.816214 0.9738122 0.8050675 0.9742805 0.814454 0.9811676 0.8750702 0.9905628 0.8343572 0.9905628 0.875306 0.9774515 0.04815107 0.992084 0.007915973 0.992084 0.04886472 0.9603331 0.7994451 0.9742805 0.8016564 0.9738122 0.8050675 0.9777265 0.8749492 0.9811677 0.8341214 0.9811676 0.8750702 0.7541286 0.6154367 0.7401584 0.6176214 0.7536593 0.6120255 0.2547435 0.6308816 0.1725329 0.626868 0.1770728 0.5921253 0.1782839 0.5566949 0.2558314 0.5559922 0.2559243 0.5631482 0.8192356 0.7094712 0.8616349 0.6425675 0.8649058 0.7094712 0.6428582 0.7223907 0.6029217 0.7847769 0.6029217 0.7179282 0.6998837 0.8816539 0.6629181 0.8149046 0.6998837 0.8148056 0.2411044 0.2309023 0.279244 0.2920963 0.245023 0.2676598 0.2180677 0.1320055 0.2787553 0.1900728 0.2160664 0.1746913 0.8013111 0.1775721 0.7566862 0.1107232 0.8212159 0.1091716 0.4985051 0.8559535 0.5099043 0.9409123 0.497516 0.9407094 0.9773508 0.6147108 0.9875495 0.5640621 0.9875495 0.6175094 0.1567009 0.7321665 0.09409445 0.7160243 0.1567009 0.6578788 0.5148126 0.5769498 0.4462576 0.6124412 0.44773 0.5721282 0.357578 0.9006459 0.3284897 0.8457753 0.357578 0.8451352 0.1291607 0.9149116 0.09217119 0.9339171 0.09374344 0.920127 0.7657513 0.2094727 0.8055276 0.2875999 0.7490321 0.2875999 0.8691775 0.3917655 0.8312698 0.4575986 0.8137309 0.3885536 0.7429817 0.09110093 0.6660032 0.02930951 0.7429817 0.007916033 0.4983825 0.09462201 0.4633268 0.007915973 0.4843459 0.01180392 0.4777299 0.215239 0.4914808 0.1319339 0.4983825 0.2884022 0.007915973 0.9598447 0.03012067 0.9490872 0.03012067 0.9852054 0.2928622 0.7354294 0.2639133 0.6579919 0.2928622 0.6578788 0.01215487 0.3213412 0.08552783 0.5660802 0.007915973 0.5506089 0.7705816 0.3064845 0.7574926 0.5763778 0.7588906 0.3042342 0.2339453 0.05742579 0.2663028 0.01845878 0.2847095 0.08221977 0.007915973 0.5968255 0.07653433 0.5941587 0.009446442 0.6362608 0.07771861 0.6791331 0.01091885 0.6765736 0.07800143 0.6717522 0.8584939 0.8783729 0.8158013 0.8115241 0.861357 0.8114505 0.8773557 0.007915973 0.8391754 0.07476472 0.8391754 0.007915973 0.1793107 0.007915973 0.1380978 0.07010394 0.1456154 0.03413218 0.187548 0.1096076 0.118056 0.1660036 0.1258665 0.1286308 0.7787184 0.07631647 0.8233433 0.009467661 0.8233433 0.07631641 0.9439921 0.810889 0.9300034 0.7379302 0.9439921 0.7357958 0.7120788 0.3042342 0.6965164 0.5823816 0.698316 0.3061242 0.7289974 0.2536768 0.6654236 0.2836365 0.6857053 0.2094727 0.5148126 0.5526534 0.4901795 0.3056427 0.5148126 0.3042342 0.2153201 0.8254408 0.1725329 0.7585921 0.2358096 0.7572132 0.7163745 0.7989736 0.6629181 0.7321248 0.7266733 0.7286865 0.05353868 0.07618147 0.05806893 0.009473979 0.09750312 0.007915973 0.9527855 0.6425675 0.9527855 0.7044398 0.9271749 0.6739167 0.3946579 0.8279244 0.4245375 0.7610756 0.4245375 0.8279244 0.1133351 0.2483683 0.1609808 0.2803582 0.1207562 0.2773117 0.6342622 0.4946192 0.6257523 0.4427064 0.638186 0.4573032 0.562947 0.6418756 0.5383818 0.6913717 0.5306446 0.6247197 0.2717562 0.3822498 0.2973551 0.3079283 0.2883535 0.3995536 0.7408541 0.1872695 0.6883001 0.1235133 0.7408541 0.1217317 0.1149739 0.3025234 0.1163102 0.3836266 0.1061296 0.3941642 0.2559243 0.5401602 0.2160664 0.3097031 0.2559243 0.3079283 0.7287002 0.3098075 0.7416606 0.579505 0.7279107 0.5775239 0.7864136 0.3073692 0.797899 0.5822684 0.7882907 0.5900908 0.3232673 0.02564793 0.400394 0.2841792 0.3155491 0.2740904 0.5570433 0.008313 0.5142145 0.2556601 0.5325169 0.007915973 0.5728753 0.01438909 0.6031928 0.260778 0.5924135 0.2612842 0.1465419 0.3965302 0.2002344 0.5324999 0.1424959 0.4655641 0.09750312 0.1973308 0.05893111 0.2825307 0.07365751 0.1815745 0.187548 0.1096076 0.2002344 0.01228874 0.2002344 0.2844359 0.3155491 0.5748552 0.3961411 0.5635101 0.3947485 0.5746508 0.8184263 0.7286865 0.8610864 0.7287929 0.8615159 0.7956185 0.2516416 0.7617023 0.291494 0.7572132 0.289822 0.8392928 0.6397255 0.8826614 0.6029216 0.882802 0.6031389 0.8159751 0.4633268 0.007915973 0.4739124 0.10939 0.427662 0.07109534 0.4739124 0.10939 0.4777299 0.215239 0.416226 0.1702464 0.06191581 0.7051844 0.06437903 0.7763797 0.007915973 0.7763797 0.6690658 0.5859457 0.6629181 0.4940847 0.6727847 0.5049169 0.4286717 0.6462351 0.4171826 0.6462504 0.416226 0.5648694 0.6257523 0.4427064 0.6328604 0.3086771 0.647086 0.3042342 0.6806845 0.4678034 0.6727847 0.5049169 0.6629181 0.4940847 0.1567009 0.9073241 0.1461815 0.9084142 0.145375 0.8406426 0.3884921 0.3769871 0.3894205 0.3000111 0.3996804 0.3013445 0.2480813 0.6626525 0.2480813 0.727545 0.1968882 0.7275064 0.7425052 0.7615942 0.7713126 0.7337203 0.7999693 0.7286865 0.2559243 0.5631482 0.2547435 0.6308816 0.1770728 0.5921253 0.6285012 0.2869043 0.6190247 0.2843169 0.6192106 0.2698341 0.7792541 0.8215 0.7792541 0.8883488 0.7425052 0.8883488 0.6190247 0.2434282 0.619343 0.01119649 0.6495916 0.007915973 0.3884921 0.404393 0.3988233 0.4026646 0.3988233 0.4769522 0.9610735 0.29848 0.9723973 0.2965384 0.9723973 0.358542 0.5944468 0.6913716 0.5946145 0.7020961 0.5385496 0.7020961 0.5944468 0.6913716 0.5640712 0.6753197 0.562947 0.6418756 0.8509078 0.5752785 0.859094 0.6191462 0.8137309 0.6191462 0.5474746 0.7972064 0.5306445 0.7179281 0.5870896 0.720314 0.4658221 0.7716569 0.5047733 0.7726885 0.5047733 0.8395367 0.329205 0.6653574 0.3915038 0.6676536 0.3917531 0.7452437 0.0478692 0.8606991 0.007916033 0.8606991 0.007916033 0.7938503 0.5973454 0.6188809 0.5981229 0.6254041 0.562947 0.6418756 0.818373 0.9337419 0.8158013 0.8942049 0.8528835 0.8975566 0.9117075 0.5782903 0.9138792 0.6239535 0.8749261 0.6239534 0.8208714 0.4862993 0.8548744 0.4744457 0.8548744 0.547684 0.01136523 0.8886178 0.04362195 0.8765311 0.04362195 0.9332553 0.459098 0.5449151 0.4164524 0.5416346 0.416226 0.3094028 0.7171003 0.7012564 0.6949011 0.6835688 0.6951644 0.6443203 0.8849887 0.2237001 0.9135094 0.2094727 0.9194345 0.2693153 0.8325938 0.3727216 0.8137309 0.3042342 0.872547 0.3058729 0.6681774 0.9086546 0.6998837 0.8975849 0.6998837 0.9440529 0.09217119 0.8322309 0.1289201 0.8322309 0.1289201 0.8990796 0.8370478 0.1824098 0.8371956 0.1091716 0.8694142 0.1186479 0.5315575 0.618205 0.5634198 0.6029774 0.562947 0.6418756 0.1363827 0.59397 0.1363827 0.6418202 0.1061297 0.6418202 0.2997171 0.007915973 0.2997171 0.2859503 0.2847095 0.08221977 0.2997171 0.2859503 0.279244 0.2920963 0.2787553 0.1900728 0.2847095 0.08221977 0.2997171 0.2859503 0.2787553 0.1900728 0.4519196 0.903703 0.4447271 0.8596615 0.4816841 0.8555317 0.6456792 0.6805281 0.6167303 0.6806412 0.6167304 0.6030906 0.9094319 0.8911379 0.9094319 0.9478622 0.8799402 0.9357755 0.2636213 0.8641999 0.2941744 0.8551247 0.2941744 0.9104011 0.3995796 0.5364806 0.3887986 0.5369502 0.3884921 0.5235063 0.5463395 0.3083414 0.6025709 0.316281 0.6025709 0.4331997 0.2820211 0.4517768 0.2717562 0.3822498 0.2883535 0.3995536 0.6707298 0.4573851 0.6633735 0.3042342 0.6744117 0.3113087 0.4292187 0.244194 0.4777299 0.215239 0.4647235 0.2803167 0.9009621 0.3601338 0.888379 0.3111413 0.9180836 0.302441 0.7158685 0.825572 0.7266733 0.8148056 0.7266733 0.8823578 0.5771536 0.3054178 0.5995979 0.3042342 0.6025709 0.316281 0.2129845 0.7413812 0.1968882 0.7275064 0.2480813 0.727545 0.497516 0.982658 0.4980239 0.9658755 0.51147 0.971446 0.2358097 0.8412728 0.2358097 0.8918553 0.227128 0.8870258 0.9869393 0.06469672 0.9869393 0.09216874 0.9774515 0.08219963 0.9868848 0.9395365 0.9767314 0.9360086 0.9739737 0.895903 0.9455042 0.2099062 0.9455042 0.2501065 0.9352664 0.249673 0.9622941 0.210027 0.9622941 0.2502273 0.9455042 0.2501065 0.8158013 0.9598566 0.8301711 0.9616717 0.8297048 0.9710641 0.9909762 0.2506294 0.9815722 0.2506338 0.9815723 0.2094772 0.9398457 0.949624 0.9398457 0.9907805 0.925264 0.9900148 0.8163081 0.9766392 0.8297048 0.9710641 0.8301711 0.974479 0.9815722 0.2506338 0.9781261 0.250689 0.9781261 0.2095323 0.4980239 0.9658755 0.5026738 0.9567442 0.5119373 0.9680313 0.5133454 0.6545432 0.5148126 0.6667897 0.4447271 0.6518764 0.9616195 0.04891109 0.9495787 0.05489861 0.9388992 0.03281587 0.8669152 0.2095465 0.8669152 0.2763953 0.8242225 0.2763952 0.5306446 0.8136966 0.568825 0.8136966 0.568825 0.8805454 0.02178132 0.2178335 0.07365751 0.1815745 0.05893111 0.2825307 0.007915973 0.1208481 0.05353868 0.07618147 0.07365751 0.1815745 0.1367961 0.8163989 0.09217125 0.8163989 0.09217125 0.7495502 0.414683 0.7350412 0.4156774 0.6633933 0.4286717 0.6620823 0.2973551 0.583693 0.284307 0.5783281 0.2820211 0.4517768 0.123116 0.420956 0.1128596 0.4310774 0.1061296 0.3941642 0.6184028 0.5126017 0.6342622 0.4946192 0.647086 0.5857881 0.5125035 0.7558249 0.4447271 0.7558249 0.4489298 0.725865 0.009446442 0.6362608 0.07653433 0.5941587 0.07800143 0.6717522 0.9739737 0.9723848 0.9741283 0.9578226 0.9835431 0.9553684 0.9339156 0.36431 0.9347222 0.2965384 0.9452415 0.2976284 0.1453749 0.9256757 0.1583567 0.9242463 0.1583567 0.9776934 0.7171003 0.7128545 0.6695308 0.7128545 0.6695308 0.7012564 0.6951644 0.6443203 0.6949011 0.6835688 0.6695308 0.7012564 0.8774071 0.485844 0.9099135 0.4744457 0.9099135 0.5340152 0.3171953 0.3651865 0.316778 0.3002954 0.3726602 0.3000112 0.3726602 0.3000112 0.3726602 0.5476781 0.3155491 0.4327188 0.3726602 0.5476781 0.3393578 0.5471875 0.3155491 0.4327188 0.3788259 0.7624544 0.3788259 0.8293032 0.3360386 0.8293032 0.8034036 0.6460057 0.8034036 0.7128545 0.7499472 0.7128545 0.6638379 0.6177794 0.6941176 0.6043757 0.6951644 0.6443203 0.5343362 0.9077884 0.5665114 0.8963774 0.5665114 0.9428109 0.3755092 0.8594958 0.4068198 0.8451352 0.4124832 0.9050031 0.1725329 0.8493967 0.2110351 0.8412728 0.2110351 0.9051282 0.9239463 0.3885536 0.9239463 0.4452778 0.8916895 0.4331912 0.3169612 0.6094429 0.3947485 0.5746508 0.3961411 0.6423802 0.911944 0.7501173 0.9141715 0.7956185 0.877348 0.7956185 0.6069254 0.9383862 0.6029217 0.898634 0.6363279 0.9033638 0.8771889 0.8671821 0.8819653 0.8139396 0.9134061 0.8114506 0.7225953 0.6167411 0.7238163 0.6232714 0.6951644 0.6443203 0.9230672 0.07476472 0.8931877 0.07476472 0.8931877 0.007915973 0.8954754 0.1232029 0.9240931 0.1091716 0.9278854 0.1657689 0.9895473 0.5149264 0.970881 0.5094967 0.9679937 0.4959208 0.5339586 0.5839988 0.5306445 0.4574702 0.6008982 0.4785277 0.7257578 0.9601935 0.7158685 0.9571533 0.7158685 0.9016426 0.1128596 0.4310774 0.123116 0.420956 0.1266639 0.5728614 0.00847423 0.03834998 0.01773184 0.009940862 0.05806893 0.009473979 0.9344626 0.4861146 0.9521617 0.4744457 0.9521617 0.5447263 0.05945402 0.8871297 0.07143837 0.8765311 0.07143837 0.9456835 0.5617026 0.5871455 0.5339586 0.5839988 0.5982006 0.5738963 0.7408541 0.1217317 0.6883001 0.1235133 0.7046813 0.1100567 0.7536593 0.6120255 0.7401584 0.6176214 0.7396484 0.6008525 0.2357968 0.9580145 0.227128 0.9535971 0.227128 0.9126483 0.1520822 0.5759076 0.1425029 0.5730801 0.1424959 0.5584899 0.9819395 0.6917253 0.9686175 0.6875289 0.9686175 0.6475315 0.2885256 0.6000367 0.2987533 0.599525 0.2987533 0.6395224 0.2717564 0.6005324 0.2885256 0.6000367 0.2885257 0.6400341 0.9598242 0.816214 0.9603331 0.7994451 0.9738122 0.8050675 0.9811676 0.8750702 0.9811677 0.8341214 0.9905628 0.8343572 0.9774515 0.04815107 0.9774515 0.008153676 0.992084 0.007915973 0.9603331 0.7994451 0.9649932 0.7903264 0.9742805 0.8016564 0.9777265 0.8749492 0.9777265 0.8340004 0.9811677 0.8341214 0.7541286 0.6154367 0.7448276 0.6267354 0.7401584 0.6176214 0.2547435 0.6308816 0.2559243 0.6420467 0.1725329 0.626868 0.8192356 0.7094712 0.8195847 0.6426238 0.8616349 0.6425675 0.6428582 0.7223907 0.6428582 0.799981 0.6029217 0.7847769 0.6998837 0.8816539 0.6629181 0.8817529 0.6629181 0.8149046 0.2411044 0.2309023 0.2787553 0.1900728 0.279244 0.2920963 0.2180677 0.1320055 0.2847095 0.08221977 0.2787553 0.1900728 0.8013111 0.1775721 0.7566862 0.177572 0.7566862 0.1107232 0.4985051 0.8559535 0.5099043 0.8555317 0.5099043 0.9409123 0.9773508 0.6147108 0.9773508 0.5668606 0.9875495 0.5640621 0.1567009 0.7321665 0.1277693 0.7290831 0.09409445 0.7160243 0.5148126 0.5769498 0.5133454 0.6545432 0.4462576 0.6124412 0.357578 0.9006459 0.3284897 0.9012858 0.3284897 0.8457753 0.1291607 0.9149116 0.1291607 0.9553923 0.09217119 0.9339171 0.7657513 0.2094727 0.8053677 0.2100493 0.8055276 0.2875999 0.8691775 0.3917655 0.8691775 0.4586138 0.8312698 0.4575986 0.7429817 0.09110093 0.6654236 0.09333968 0.6660032 0.02930951 0.4983825 0.09462201 0.4739124 0.10939 0.4633268 0.007915973 0.4777299 0.215239 0.4739124 0.10939 0.4914808 0.1319339 0.4983825 0.2884022 0.4647235 0.2803167 0.4777299 0.215239 0.2928622 0.7354294 0.2639133 0.7355425 0.2639133 0.6579919 0.01215487 0.3213412 0.08552783 0.2983627 0.08552783 0.5660802 0.7705816 0.3064845 0.7705816 0.5817553 0.7574926 0.5763778 0.2339453 0.05742579 0.2323102 0.0285229 0.2663028 0.01845878 0.007915973 0.5968255 0.07800143 0.5819122 0.07653433 0.5941587 0.8584939 0.8783729 0.8158013 0.8783729 0.8158013 0.8115241 0.8773557 0.007915973 0.8773557 0.07476472 0.8391754 0.07476472 0.1793107 0.007915973 0.187548 0.1096076 0.1380978 0.07010394 0.187548 0.1096076 0.1607276 0.2134975 0.118056 0.1660036 0.7787184 0.07631647 0.7588136 0.007916033 0.8233433 0.009467661 0.9439921 0.810889 0.9309978 0.8095779 0.9300034 0.7379302 0.7120788 0.3042342 0.7120788 0.5869621 0.6965164 0.5823816 0.7289974 0.2536768 0.7332 0.2836365 0.6654236 0.2836365 0.5148126 0.5526534 0.47493 0.5537368 0.4901795 0.3056427 0.2153201 0.8254408 0.1725329 0.8254408 0.1725329 0.7585921 0.7163745 0.7989736 0.6629181 0.7989736 0.6629181 0.7321248 0.09750312 0.007915973 0.09213304 0.1597679 0.05353868 0.07618147 0.09213304 0.1597679 0.07365751 0.1815745 0.05353868 0.07618147 0.3946579 0.8279244 0.3946579 0.7610756 0.4245375 0.7610756 0.1133351 0.2483683 0.1607276 0.2134975 0.1609808 0.2803582 0.6342622 0.4946192 0.6184028 0.5126017 0.6257523 0.4427064 0.562947 0.6418756 0.5640712 0.6753197 0.5383818 0.6913717 0.2717562 0.3822498 0.2835449 0.3094335 0.2973551 0.3079283 0.7408541 0.1872695 0.6654236 0.1936407 0.6883001 0.1235133 0.1149739 0.3025234 0.1266639 0.3002679 0.1163102 0.3836266 0.2559243 0.5401602 0.2160966 0.5390101 0.2160664 0.3097031 0.7287002 0.3098075 0.7416606 0.3042342 0.7416606 0.579505 0.7864136 0.3073692 0.797899 0.3042342 0.797899 0.5822684 0.3232673 0.02564793 0.400394 0.007915973 0.400394 0.2841792 0.5570433 0.008313 0.5570433 0.261175 0.5142145 0.2556601 0.5728753 0.01438909 0.6031928 0.007915973 0.6031928 0.260778 0.1465419 0.3965302 0.1443964 0.3011475 0.2002344 0.3002679 0.2002344 0.3002679 0.2002344 0.5324999 0.1465419 0.3965302 0.2002344 0.5324999 0.1443698 0.5310751 0.1424959 0.4655641 0.09750312 0.1973308 0.08009171 0.2795056 0.05893111 0.2825307 0.1609808 0.2803582 0.1607276 0.2134975 0.2002344 0.2844359 0.1607276 0.2134975 0.187548 0.1096076 0.2002344 0.2844359 0.187548 0.1096076 0.1793107 0.007915973 0.2002344 0.01228874</float_array>
          <technique_common>
            <accessor source="#Cube_002-mesh-map-0-array" count="1152" stride="2">
              <param name="S" type="float"/>
              <param name="T" type="float"/>
            </accessor>
          </technique_common>
        </source>
        <vertices id="Cube_002-mesh-vertices">
          <input semantic="POSITION" source="#Cube_002-mesh-positions"/>
        </vertices>
        <triangles material="Egg_Carton-material" count="384">
          <input semantic="VERTEX" source="#Cube_002-mesh-vertices" offset="0"/>
          <input semantic="NORMAL" source="#Cube_002-mesh-normals" offset="1"/>
          <input semantic="TEXCOORD" source="#Cube_002-mesh-map-0" offset="2" set="0"/>
          <p>41 0 0 29 1 1 39 2 2 46 3 3 40 4 4 16 5 5 0 6 6 21 7 7 22 8 8 18 9 9 5 10 10 4 11 11 20 12 12 7 13 13 6 14 14 0 6 15 6 14 16 7 13 17 1 15 18 4 11 19 5 10 20 23 16 21 5 10 22 19 17 23 1 15 24 8 18 25 9 19 26 184 20 27 8 21 28 183 22 29 26 23 30 41 24 31 42 25 32 49 26 33 42 25 34 11 27 35 9 28 36 10 29 37 11 27 38 88 30 39 104 31 40 103 32 41 43 33 42 26 23 43 42 25 44 186 34 45 48 35 46 185 36 47 44 37 48 27 38 49 43 39 50 133 40 51 147 41 52 148 42 53 13 43 54 55 44 55 15 45 56 167 46 57 160 47 58 166 48 59 187 49 60 108 50 61 188 51 62 143 52 63 151 53 64 150 54 65 25 55 66 143 52 67 142 56 68 146 57 69 31 58 70 29 1 71 29 1 72 142 59 73 146 57 74 29 1 75 32 60 76 16 5 77 23 16 78 34 61 79 37 62 80 30 63 81 145 64 82 28 65 83 24 66 84 3 67 85 17 68 86 23 69 87 6 14 88 1 15 89 24 70 90 4 11 91 2 71 92 86 72 93 66 73 94 65 74 95 46 3 96 32 60 97 33 75 98 24 66 99 33 75 100 38 76 101 22 8 102 35 77 103 36 78 104 19 17 105 18 9 106 34 61 107 21 7 108 20 12 109 35 77 110 24 70 111 34 61 112 18 9 113 23 69 114 35 77 115 20 12 116 108 79 117 189 80 118 188 81 119 174 82 120 94 83 121 162 84 122 165 85 123 164 86 124 96 87 125 139 88 126 35 89 127 138 90 128 169 91 129 157 92 130 163 93 131 141 94 132 33 95 133 134 96 134 138 90 135 35 89 136 137 97 137 136 98 138 34 99 139 135 100 140 69 101 141 84 102 142 83 103 143 34 99 144 141 104 145 135 100 146 154 105 147 32 106 148 133 40 149 134 96 150 33 95 151 154 105 152 173 107 153 89 108 154 172 109 155 127 110 156 147 41 157 149 111 158 168 112 159 96 87 160 98 113 161 28 65 162 44 37 163 45 114 164 46 3 165 3 67 166 40 4 167 35 89 168 140 115 169 137 97 170 140 116 171 34 99 172 136 98 173 17 68 174 46 3 175 33 75 176 45 114 177 30 63 178 28 65 179 49 117 180 44 37 181 43 39 182 110 118 183 73 119 184 74 120 185 11 27 186 41 24 187 9 28 188 3 67 189 39 2 190 40 4 191 12 121 192 49 117 193 48 35 194 14 122 195 51 123 196 15 124 197 13 125 198 51 123 199 49 117 200 12 121 201 50 126 202 14 122 203 54 127 204 56 128 205 52 129 206 13 43 207 52 130 208 53 131 209 12 132 210 54 133 211 52 130 212 15 45 213 54 133 214 14 134 215 58 135 216 63 136 217 62 137 218 54 127 219 59 138 220 58 135 221 55 139 222 57 140 223 59 138 224 52 129 225 57 140 226 53 141 227 61 142 228 62 137 229 63 136 230 59 138 231 61 142 232 63 136 233 56 128 234 61 142 235 57 140 236 58 135 237 60 143 238 56 128 239 91 144 240 102 145 241 100 146 242 30 63 243 153 147 244 145 64 245 101 148 246 107 149 247 79 150 248 84 102 249 0 6 250 22 151 251 67 152 252 82 153 253 81 154 254 69 101 255 0 6 256 70 155 257 67 152 258 64 156 259 68 157 260 85 158 261 68 157 262 64 156 263 64 156 264 72 18 265 71 18 266 102 159 267 88 30 268 103 32 269 103 32 270 110 118 271 74 120 272 72 160 273 73 119 274 71 161 275 48 162 276 184 20 277 185 163 278 104 164 279 90 165 280 105 166 281 175 167 282 162 84 283 176 168 284 116 169 285 76 170 286 78 171 287 179 172 288 171 173 289 178 174 290 170 175 291 88 30 292 87 176 293 174 82 294 91 144 295 93 177 296 170 178 297 91 144 298 174 82 299 94 179 300 91 144 301 79 150 302 85 158 303 96 180 304 82 153 305 90 165 306 173 107 307 92 181 308 51 123 309 50 126 310 187 49 311 69 101 312 85 182 313 64 156 314 67 152 315 86 183 316 65 74 317 107 149 318 94 179 319 79 150 320 86 72 321 95 184 322 80 185 323 22 151 324 97 186 325 84 102 326 82 153 327 96 180 328 81 154 329 84 102 330 97 186 331 83 103 332 81 154 333 99 187 334 86 183 335 97 186 336 85 182 337 83 103 338 39 2 339 16 5 340 40 4 341 139 188 342 97 189 343 36 190 344 169 91 345 95 191 346 99 192 347 167 46 348 166 48 349 97 189 350 164 86 351 99 193 352 96 87 353 182 194 354 94 83 355 95 191 356 163 93 357 182 194 358 95 191 359 106 195 360 105 166 361 90 165 362 101 148 363 80 185 364 107 149 365 168 196 366 97 189 367 166 48 368 80 185 369 95 184 370 107 149 371 90 165 372 108 50 373 106 195 374 110 197 375 105 166 376 112 198 377 26 23 378 144 199 379 143 52 380 74 120 381 102 159 382 103 32 383 66 73 384 100 146 385 65 74 386 75 200 387 110 197 388 76 201 389 78 202 390 111 203 391 77 204 392 76 201 393 112 198 394 78 202 395 111 203 396 75 200 397 77 204 398 117 205 399 115 206 400 113 207 401 76 170 402 113 208 403 75 209 404 75 209 405 115 210 406 77 211 407 77 211 408 116 169 409 78 171 410 119 212 411 124 213 412 120 214 413 115 206 414 120 214 415 116 215 416 116 215 417 118 216 418 114 217 419 118 216 420 113 207 421 114 217 422 124 213 423 121 218 424 122 219 425 120 214 426 122 219 427 118 216 428 122 219 429 117 205 430 118 216 431 121 218 432 119 212 433 117 205 434 146 57 435 149 111 436 147 41 437 148 42 438 154 105 439 133 40 440 138 90 441 125 220 442 139 88 443 135 100 444 130 221 445 136 98 446 131 222 447 138 90 448 137 97 449 131 222 450 125 220 451 132 223 452 129 224 453 126 225 454 130 221 455 140 116 456 130 221 457 126 225 458 142 56 459 150 54 460 149 226 461 172 227 462 88 30 463 171 173 464 144 228 465 152 229 466 151 230 467 79 150 468 100 146 469 101 148 470 27 38 471 145 64 472 144 228 473 173 107 474 108 79 475 92 181 476 141 94 477 128 231 478 127 110 479 131 222 480 140 115 481 126 225 482 129 224 483 141 104 484 127 110 485 8 18 486 0 6 487 183 18 488 2 71 489 9 19 490 41 0 491 153 147 492 152 229 493 145 64 494 148 42 495 134 96 496 154 105 497 180 232 498 192 233 499 193 234 500 191 235 501 177 236 502 190 237 503 128 231 504 147 41 505 127 110 506 177 238 507 174 82 508 175 167 509 182 194 510 176 168 511 162 84 512 125 220 513 167 46 514 139 188 515 165 85 516 158 239 517 164 86 518 125 220 519 160 47 520 161 240 521 155 241 522 158 239 523 159 242 524 168 112 525 159 242 526 165 85 527 171 173 528 177 236 529 178 174 530 191 235 531 151 53 532 192 243 533 173 107 534 179 244 535 180 232 536 189 80 537 152 229 538 153 147 539 168 196 540 160 47 541 155 241 542 169 245 543 158 239 544 156 246 545 65 74 546 100 146 547 102 145 548 173 107 549 180 232 550 181 247 551 163 93 552 176 168 553 182 194 554 157 92 555 175 167 556 176 168 557 10 29 558 49 26 559 11 27 560 32 106 561 146 57 562 133 40 563 109 248 564 184 20 565 73 119 566 186 34 567 109 249 568 111 203 569 184 20 570 71 161 571 73 119 572 181 247 573 193 234 574 189 80 575 179 172 576 191 235 577 192 243 578 191 235 579 149 226 580 150 54 581 193 234 582 151 230 583 152 229 584 47 250 585 189 80 586 153 147 587 187 49 588 47 251 589 45 114 590 112 198 591 187 49 592 111 203 593 71 18 594 0 6 595 64 156 596 155 241 597 190 252 598 177 238 599 41 0 600 25 253 601 29 1 602 0 6 603 7 13 604 21 7 605 18 9 606 19 17 607 5 10 608 20 12 609 21 7 610 7 13 611 0 6 612 1 15 613 6 14 614 1 15 615 2 71 616 4 11 617 23 16 618 1 15 619 5 10 620 184 20 621 10 29 622 8 21 623 26 23 624 25 55 625 41 24 626 49 26 627 43 33 628 42 25 629 9 28 630 8 21 631 10 29 632 88 30 633 89 254 634 104 31 635 43 33 636 27 255 637 26 23 638 186 34 639 50 126 640 48 35 641 44 37 642 28 65 643 27 38 644 133 40 645 146 57 646 147 41 647 13 43 648 53 131 649 55 44 650 167 46 651 161 240 652 160 47 653 187 49 654 106 195 655 108 50 656 143 52 657 144 199 658 151 53 659 25 55 660 26 23 661 143 52 662 29 1 663 25 253 664 142 59 665 29 1 666 31 58 667 32 60 668 23 16 669 19 17 670 34 61 671 24 66 672 2 71 673 3 67 674 23 69 675 20 12 676 6 14 677 24 70 678 18 9 679 4 11 680 86 72 681 80 185 682 66 73 683 46 3 684 16 5 685 32 60 686 24 66 687 17 68 688 33 75 689 22 8 690 21 7 691 35 77 692 24 70 693 38 256 694 34 61 695 23 69 696 37 257 697 35 77 698 108 79 699 181 247 700 189 80 701 174 82 702 93 177 703 94 83 704 139 88 705 36 258 706 35 89 707 169 91 708 156 246 709 157 92 710 141 94 711 38 259 712 33 95 713 69 101 714 70 155 715 84 102 716 34 99 717 38 260 718 141 104 719 154 105 720 33 95 721 32 106 722 173 107 723 90 165 724 89 108 725 149 111 726 190 252 727 127 110 728 190 252 729 125 220 730 126 225 731 127 110 732 190 252 733 126 225 734 168 112 735 165 85 736 96 87 737 46 3 738 17 68 739 3 67 740 35 89 741 37 261 742 140 115 743 140 116 744 37 262 745 34 99 746 45 114 747 47 251 748 30 63 749 49 117 750 51 123 751 44 37 752 110 118 753 109 248 754 73 119 755 11 27 756 42 25 757 41 24 758 3 67 759 2 71 760 39 2 761 12 121 762 13 125 763 49 117 764 14 122 765 50 126 766 51 123 767 13 125 768 15 124 769 51 123 770 12 121 771 48 35 772 50 126 773 54 127 774 58 135 775 56 128 776 13 43 777 12 132 778 52 130 779 12 132 780 14 134 781 54 133 782 15 45 783 55 44 784 54 133 785 58 135 786 59 138 787 63 136 788 54 127 789 55 139 790 59 138 791 55 139 792 53 141 793 57 140 794 52 129 795 56 128 796 57 140 797 61 142 798 60 143 799 62 137 800 59 138 801 57 140 802 61 142 803 56 128 804 60 143 805 61 142 806 58 135 807 62 137 808 60 143 809 91 144 810 87 263 811 102 145 812 30 63 813 47 250 814 153 147 815 84 102 816 70 155 817 0 6 818 67 152 819 68 157 820 82 153 821 69 101 822 64 156 823 0 6 824 67 152 825 65 74 826 64 156 827 85 158 828 82 153 829 68 157 830 102 159 831 87 176 832 88 30 833 103 32 834 104 31 835 110 118 836 72 160 837 74 120 838 73 119 839 48 162 840 10 29 841 184 20 842 104 164 843 89 108 844 90 165 845 175 167 846 174 82 847 162 84 848 116 169 849 114 264 850 76 170 851 179 172 852 172 227 853 171 173 854 170 175 855 171 173 856 88 30 857 170 178 858 87 263 859 91 144 860 94 179 861 93 177 862 91 144 863 85 158 864 98 265 865 96 180 866 50 126 867 186 34 868 187 49 869 187 49 870 45 114 871 51 123 872 45 114 873 44 37 874 51 123 875 69 101 876 83 103 877 85 182 878 67 152 879 81 154 880 86 183 881 107 149 882 95 184 883 94 179 884 86 72 885 99 266 886 95 184 887 22 151 888 36 267 889 97 186 890 81 154 891 96 180 892 99 187 893 97 186 894 98 268 895 85 182 896 39 2 897 29 1 898 16 5 899 139 188 900 167 46 901 97 189 902 169 91 903 163 93 904 95 191 905 164 86 906 169 245 907 99 193 908 182 194 909 162 84 910 94 83 911 101 148 912 66 73 913 80 185 914 168 196 915 98 269 916 97 189 917 90 165 918 92 181 919 108 50 920 110 197 921 104 164 922 105 166 923 26 23 924 27 255 925 144 199 926 74 120 927 72 160 928 102 159 929 66 73 930 101 148 931 100 146 932 75 200 933 109 249 934 110 197 935 78 202 936 112 198 937 111 203 938 76 201 939 110 197 940 112 198 941 111 203 942 109 249 943 75 200 944 117 205 945 119 212 946 115 206 947 76 170 948 114 264 949 113 208 950 75 209 951 113 208 952 115 210 953 77 211 954 115 210 955 116 169 956 119 212 957 123 270 958 124 213 959 115 206 960 119 212 961 120 214 962 116 215 963 120 214 964 118 216 965 118 216 966 117 205 967 113 207 968 124 213 969 123 270 970 121 218 971 120 214 972 124 213 973 122 219 974 122 219 975 121 218 976 117 205 977 121 218 978 123 270 979 119 212 980 146 57 981 142 59 982 149 111 983 138 90 984 132 223 985 125 220 986 135 100 987 129 224 988 130 221 989 131 222 990 132 223 991 138 90 992 131 222 993 126 225 994 125 220 995 129 224 996 127 110 997 126 225 998 140 116 999 136 98 1000 130 221 1001 142 56 1002 143 52 1003 150 54 1004 172 227 1005 89 254 1006 88 30 1007 144 228 1008 145 64 1009 152 229 1010 79 150 1011 91 144 1012 100 146 1013 27 38 1014 28 65 1015 145 64 1016 173 107 1017 181 247 1018 108 79 1019 141 94 1020 134 96 1021 128 231 1022 131 222 1023 137 97 1024 140 115 1025 129 224 1026 135 100 1027 141 104 1028 8 18 1029 1 15 1030 0 6 1031 2 71 1032 1 15 1033 9 19 1034 41 0 1035 39 2 1036 2 71 1037 148 42 1038 128 231 1039 134 96 1040 180 232 1041 179 244 1042 192 233 1043 191 235 1044 178 174 1045 177 236 1046 128 231 1047 148 42 1048 147 41 1049 177 238 1050 170 178 1051 174 82 1052 125 220 1053 161 240 1054 167 46 1055 165 85 1056 159 242 1057 158 239 1058 125 220 1059 155 241 1060 160 47 1061 155 241 1062 156 246 1063 158 239 1064 168 112 1065 155 241 1066 159 242 1067 171 173 1068 170 175 1069 177 236 1070 191 235 1071 150 54 1072 151 53 1073 173 107 1074 172 109 1075 179 244 1076 189 80 1077 193 234 1078 152 229 1079 168 196 1080 166 48 1081 160 47 1082 169 245 1083 164 86 1084 158 239 1085 102 145 1086 72 18 1087 65 74 1088 72 18 1089 64 156 1090 65 74 1091 163 93 1092 157 92 1093 176 168 1094 157 92 1095 156 246 1096 175 167 1097 10 29 1098 48 162 1099 49 26 1100 32 106 1101 31 58 1102 146 57 1103 109 248 1104 185 163 1105 184 20 1106 186 34 1107 185 36 1108 109 249 1109 184 20 1110 183 22 1111 71 161 1112 181 247 1113 180 232 1114 193 234 1115 179 172 1116 178 174 1117 191 235 1118 191 235 1119 190 237 1120 149 226 1121 193 234 1122 192 233 1123 151 230 1124 47 250 1125 188 81 1126 189 80 1127 187 49 1128 188 51 1129 47 251 1130 112 198 1131 105 166 1132 106 195 1133 106 195 1134 187 49 1135 112 198 1136 187 49 1137 186 34 1138 111 203 1139 71 18 1140 183 18 1141 0 6 1142 175 167 1143 156 246 1144 177 238 1145 156 246 1146 155 241 1147 177 238 1148 155 241 1149 125 220 1150 190 252 1151</p>
        </triangles>
      </mesh>
    </geometry>
  </library_geometries>
  <library_visual_scenes>
    <visual_scene id="Scene" name="Scene">
      <node id="Egg_Carton_GEO" name="Egg_Carton_GEO" type="NODE">
        <matrix sid="transform">1 0 0 0 0 1 0 0 0 0 1 0 0 0 0 1</matrix>
        <instance_geometry url="#Cube_002-mesh" name="Egg_Carton_GEO">
          <bind_material>
            <technique_common>
              <instance_material symbol="Egg_Carton-material" target="#Egg_Carton-material">
                <bind_vertex_input semantic="UVMap" input_semantic="TEXCOORD" input_set="0"/>
              </instance_material>
            </technique_common>
          </bind_material>
        </instance_geometry>
      </node>
    </visual_scene>
  </library_visual_scenes>
  <scene>
    <instance_visual_scene url="#Scene"/>
  </scene>
</COLLADA>